<?xml version="1.0" encoding="utf-8"?>
<!-- Generator: Adobe Illustrator 15.0.0, SVG Export Plug-In . SVG Version: 6.00 Build 0)  -->
<!DOCTYPE svg PUBLIC "-//W3C//DTD SVG 1.1//EN" "http://www.w3.org/Graphics/SVG/1.1/DTD/svg11.dtd">
<svg version="1.1" id="Layer_1" xmlns="http://www.w3.org/2000/svg" xmlns:xlink="http://www.w3.org/1999/xlink" x="0px" y="0px"
	 width="1000px" height="1083px" viewBox="0 0 1000 1083" enable-background="new 0 0 1000 1083" xml:space="preserve">
<g>
	<g>
		<defs>
			<path id="SVGID_1_" d="M961.333,424.5c-24.315-6.054-48.714-11.854-72.979-18.082c-6.826-1.752-16.36-3.245-18.45-11.596
				c-1.357-5.426,1.315-9.745-6.108-9.598c-8.695,0.172-17.956,4.696-26.866,5.633c-4.615,0.486-17.403,0.13-18.264-5.024l14-4.667
				v-9l-10.333-11l-10-4.333l-17,0.667c0,0-11-0.667-12.333-1s-5-2.333-7-2.667s-8.667-2.667-8.667-2.667l-12.667,1.333
				c0,0-6-0.333-6-1.333S741,350.834,741,350.834s-1.334-3-2.334-3.667s-2.333-3.667-5.666-6s-9.667-1.333-9.667-1.333
				s-8.306,2.326-8.333,2.333c-2.092,0.586-6.086,0.939-8.021-0.208c0.31-0.4,0.648-0.999,1.016-1.458
				c-4.385-2.09-8.513-1.726-13.272-1.097c-4.431,0.585-5.802,3.273-9.813,4.124c-9.701,2.057-15.554-8.947-23.686-10.485
				c-12.801-2.42-22.592,10.726-35.409,10.616c-11.59-0.1-22.859-2.64-34.015-5.553c-3.536-0.923-12.949-1.806-15.413-4.371
				c-2.803-2.919-0.672-9.968-1.988-13.998c-1.45-4.438-5.695-6.789-7.762-10.786c-0.667-1.29-2.191-10.764-2.302-10.784
				c-1.458-0.268-4.104-0.777-5.796-0.403c-2.848,0.629-4.237,3.544-6.916,4.436c-3.19,1.061-6.447-0.674-9.712-0.034
				c-3.24,0.634-7.586,2.13-10.515,3.624c-6.201,3.164-10.386,10.145-13.47,16.012c-1.39-0.45-9.154-2.812-9.426-3.969l-1.25-5.333
				l-2-3.083c0,0-9.5-10.417-2.25-5.75c7.25,4.667,24.917-5.583,24.917-5.583s3.75-7.415,3.5-14.165s-29.584-52.5-30.084-52.833
				s-2.583-3.333-3.083-4.333s-1.167-2.083-1.25-2.333s0-2.167,0-2.167s0-2.25,0-2.5s0.667-1.583,0.667-1.583l1.833-1.667
				c0,0,2.385-1.891,2.417-1.916c2.766-2.194,0.159-6.25-0.52-8.572c-1.946-6.655-0.912-13.755-2.727-20.437
				c-2.247-8.272-5.574-16.143-7.69-24.465c-1.262-4.962-1.785-10.088-3.822-14.838c-2.472-5.765-6.957-10.376-8.539-16.548
				c-2.013-7.854-0.085-16.149-0.396-24.126c-0.491-12.603-7.823-20.553-15.725-29.634c-4.286-4.925-8.513-11.806-13.999-15.463
				c-3-2-17.5-10.5-20-11s-24.5-2-27-2S363,45,359,44s-22,0-30.5,0s-13,4.5-16,4.5s-28,5-28,5l-27.5,12L231,77l-34,20l-18.5,25
				l-12,22l-8.5,59l3,24.5l14,37.5l11,24.5l10.5,13l8,14l12,18v27l-4.204,25c0,0-0.963,6.5-0.296,7s0,7,0,7l-2.833,3.833l-6.5,7.833
				l-10,2.333L184,417.833l-13.333,9.333c0,0-12.667,6-12.667,6c-3.831,1.595-8.807,2-10.355,6.014
				c-2.387,6.188,2.935,12.447-0.227,18.586c-3.203,6.217-11.569,7.512-16.809,11.408c-3.927,2.919-6.625,6.578-9.13,10.728
				c-5.598,9.272-11.922,17.236-18.73,25.646c-6.036,7.455-15.121,15.144-18.598,24.194c-3.663,9.533-1.625,19.381-6.534,28.799
				c-4.169,7.999-7.869,16.366-9.989,25.162c-1.812,7.518-1.164,15.329-2.96,22.797l-6,25.334V656.5v14L66,685.166v14v20l6,30v16
				c0,0,0.667,24,4.667,26.668c4,2.666,0,24,0,24L80,843.166V854.5l4.667,6.666l4,17.334l4.667,26l3.333,19.334l2.667,14.164
				c0,0,2,9.668,2,10.168s2.833,14,3,15.5s1.5,9.832,1.833,10.666s1,10.166,1,10.166s0.833,11.834,1.167,12.668
				c0.333,0.832,2.167,11.166,2.167,11.166l1.5,10.5v13.668l4,12.668v20.666l3.333,19.666H156h210h225v-12v-14l-3-17l-2-17l-4-10
				l-3-11l-8-31l-6-29l3-15l9,4c0,0,13,5,25,5s20,0,20,0l17-4l14-19l10-29l8-32l13-36l16-77l16-91l-2-19l3-19l7.333-15.332
				L735,579.834l8.666-15.307L750,559.5c0,0,10.666-12.332,10.666-13.332s8.667-14.667,8.667-14.667l5-6.667l6-9.667
				c0,0,3-8,3.667-9.333s3.333-10.667,3.333-10.667l4-10L795,472.834l7-16l14.333-15.333c0,0,132.333,30.333,137,29.667
				s8.333-17,11-25.333S961.333,424.5,961.333,424.5z M630.5,547l-8,13l-16.667,19.668c0,0-21.5,24.5-22.167,24.5
				s-15.5,12.668-15.5,12.668L555,630.668l-20.5,12.5l-20.334,8.834l-6.666-2l-5.667-2.5l-11.167-15.5c0,0-13-12.166-13.667-12.834
				c-0.667-0.666-11.5-16.5-11.5-16.5s-14.333-21.5-16.333-23.5s-9.5-11.5-10.417-12.332c-0.917-0.834-4.917-6.834-7.25-9.5
				s-6.5-13.834-8.667-16.001s-7.667-7.667-9.167-9.333s-8.5-6.333-9-6.667s-6.333-7-6.333-7s-5.167-3.834-6-5
				s-2.667-4.667-4.5-7.667s-2.167-5.333-2.167-6s2-6,2-6.667s1.167-6.333,1.167-6.333L388,483.501l-2.667-3.5l-5.667-2
				l-2.167-1.167c0,0,5-9.667,5.167-10.833s1.5-4.833,2.667-6s3.667-2.833,3.667-2.833s7.833-6,10.333-7.333s8-5.5,8.667-5.833
				s7.167-4.833,7.167-4.833s7.833-2.167,8.5-2.333s16-3.167,16.5-3.167s18.5-4.333,19-4.5s17.167-5,18.833-5.5s8.833-9,9.667-9.667
				s1.667-8.833,1.667-8.833l-2.167-11.333l-3-8.833c0,0,2.5-5,3.167-6.167s6.667-6.667,7.5-7.167s5.167-4.333,5.167-4.333
				L518.5,370l12.5,3l15,5l10.5,7l13,14l11,9.5l17,11.5l24,11.5l5.5,5l-2.5,13l1.5,17l3.5,34.5l5,35.5L630.5,547z"/>
		</defs>
		<clipPath id="SVGID_2_">
			<use xlink:href="#SVGID_1_"  overflow="visible"/>
		</clipPath>
		<g clip-path="url(#SVGID_2_)">
			<g>
				<path fill-rule="evenodd" clip-rule="evenodd" d="M305,242.5c-6.333-1-6.961,3.706-12,4c1.207-7.793,9.299-8.701,12-15
					c-4.581-4.752-12.759-5.908-17-11c-3.695,0.638-9.961-1.295-12,1C281.73,194.746,324.208,219.425,305,242.5z"/>
				<path fill-rule="evenodd" clip-rule="evenodd" d="M448,223.5c2.269,0.432,11.926,7.373,19,3c3.962,0.309-1.118,3.473,3,3
					c0.757,6.09-2.218,8.449-4,12c-12.208-1.125-11.555-15.112-24-16C443.174,222.96,450.784,224.722,448,223.5z"/>
				<path fill-rule="evenodd" clip-rule="evenodd" d="M230,232.5C231.158,228.549,231.158,236.452,230,232.5L230,232.5z"/>
				<path fill-rule="evenodd" clip-rule="evenodd" d="M231,236.5c1.483,0.85,2.15,2.517,2,5
					C230.814,241.354,230.853,238.981,231,236.5z"/>
				<path fill-rule="evenodd" clip-rule="evenodd" d="M323,266.5c-9.06,4.511-12.044-5.131-12-13c-4.309,0.54-3.241,2.654-8,1
					C310.49,236.161,319.33,257.852,323,266.5z"/>
				<path fill-rule="evenodd" clip-rule="evenodd" d="M352,323.5c0.028-0.972,1.224-0.776,2-1
					C353.973,323.473,352.776,323.277,352,323.5z"/>
				<path fill-rule="evenodd" clip-rule="evenodd" d="M562,325.5c0.161-1.172,1.823-0.843,3-1
					C564.839,325.672,563.177,325.344,562,325.5z"/>
				<path fill-rule="evenodd" clip-rule="evenodd" d="M565,329.5c0.247-1.258,1.988-1.009,2,0
					C566.557,330.954,566.122,329.399,565,329.5z"/>
				<path fill-rule="evenodd" clip-rule="evenodd" d="M277,353.5c0.027-0.973,1.224-0.776,2-1
					C278.973,353.473,277.776,353.277,277,353.5z"/>
				<path fill-rule="evenodd" clip-rule="evenodd" d="M282,366.5c0.247-1.258,1.988-1.009,2,0
					C283.557,367.954,283.122,366.399,282,366.5z"/>
				<path fill-rule="evenodd" clip-rule="evenodd" d="M375,382.5c3.213,1.129-0.963,2.854-3,2c-0.409-2.41,1.826-2.173,1-5
					C376.749,379.071,373.062,385.509,375,382.5z"/>
				<path fill-rule="evenodd" clip-rule="evenodd" d="M368,393.5c0.027-0.972,1.224-0.776,2-1
					C369.973,393.473,368.776,393.277,368,393.5z"/>
				<path fill-rule="evenodd" clip-rule="evenodd" d="M365,404.5c0.027-0.973,1.224-0.776,2-1
					C366.973,404.473,365.776,404.276,365,404.5z"/>
				<path fill-rule="evenodd" clip-rule="evenodd" d="M728,561.5c-0.814,3.52-4.64,4.027-6,7
					C717.083,565.532,723.505,558.66,728,561.5z"/>
				<path fill-rule="evenodd" clip-rule="evenodd" d="M617,707.5c0.161-1.171,1.823-0.843,3-1c0.994,5.328-2.92,5.747-3,10
					c-1.313-1.02-3.687-0.979-5-2c1.385-2.615,3.168-4.831,6-6C618.184,707.649,617.61,707.558,617,707.5z"/>
				<path fill-rule="evenodd" clip-rule="evenodd" d="M601,713.5C603.488,709.601,602.458,716.814,601,713.5L601,713.5z"/>
				<path fill-rule="evenodd" clip-rule="evenodd" d="M612,717.5C613.158,713.549,613.158,721.452,612,717.5L612,717.5z"/>
				<path fill-rule="evenodd" clip-rule="evenodd" d="M417,751.5c0.667,0,1.333,0,2,0c0,0.667,0,1.334,0,2c-0.667,0-1.333,0-2,0
					C417,752.834,417,752.167,417,751.5z"/>
				<path fill-rule="evenodd" clip-rule="evenodd" d="M426,754.5c0.027-0.973,1.224-0.775,2-1
					C427.973,754.473,426.776,754.276,426,754.5z"/>
				<path fill-rule="evenodd" clip-rule="evenodd" d="M552,795.5c0.027-0.973,1.225-0.775,2-1
					C553.973,795.473,552.775,795.276,552,795.5z"/>
				<path fill-rule="evenodd" clip-rule="evenodd" d="M539,812.5C540.158,808.549,540.158,816.452,539,812.5L539,812.5z"/>
				<path fill-rule="evenodd" clip-rule="evenodd" d="M517,813.5c0.805,0.529,1.623,1.044,3,1c-0.354,1.313-1.761,1.573-2,3
					c-1.086-0.247-0.678-1.988-2-2C516.189,814.69,517.003,814.504,517,813.5z"/>
				<path fill-rule="evenodd" clip-rule="evenodd" d="M858,870.5C861.354,868.084,855.583,873.855,858,870.5L858,870.5z"/>
				<path fill-rule="evenodd" clip-rule="evenodd" d="M878,876.5C879.158,872.55,879.158,880.451,878,876.5L878,876.5z"/>
				<path fill-rule="evenodd" clip-rule="evenodd" d="M831,913.5c0.027-0.973,1.225-0.775,2-1
					C832.973,913.473,831.775,913.276,831,913.5z"/>
				<path fill-rule="evenodd" clip-rule="evenodd" d="M815,1003.5c1.313,0.354,1.573,1.761,3,2
					C817.594,1007.991,814.123,1005.56,815,1003.5z"/>
				<path fill-rule="evenodd" clip-rule="evenodd" d="M1000,747.5c-74.747,18.184-125.281,71.424-158,132
					c0.553,11.605-13.744,22.189-11,36c6.03-1.918,13.439-2.455,14-12c-1.177-0.156-2.839,0.172-3-1c0.028-4.458,5.336,0.466,2-6
					c1.278,0.056,1.385,1.282,3,1c-1.12-6.787,3.608-7.725,8-9c-1.499-0.756,3.799-6.754,5-5c0.251-2.917-1.883-3.45-3-5
					c1.72,0.054,2.563-0.77,3-2c-4.577-6.904,15.38-12.462,9-22c4.07,2.963,10.646-7.703,14-8c-1.78-0.484,0.434-1.065,1-2
					c-1.44-2.212-2.44,1.26-3-1c2.447-3.589,10.724-9.635,12-8c1.036-2.506,4.534-3.163,1-5c4.853-0.677,7.047-8.552,13-7
					c1.918-7.927,11.521-7.042,14-10c-3.111-3.144,9.065-9.878,8-6c3.204,0.443,1.631-5.461,5-2c2.213-1.439-1.259-2.439,1-3
					c0.211,1.122,1.109,1.558,2,2c-0.154-5.749,17.443-4.307,10-8c4.57-0.424,7.16-4.745,8-6c14.851,1.141,29.383-14.252,45-17
					c0,83.668,0,167.333,0,251c-24.936-3.618-55.802-1.156-81,1c-6.192,0.53-14.582-2.655-19,4c5.1,11.087,18.555,5.199,32,5
					c20.369-0.3,48.107,3.349,68,1c0,16.667,0,33.334,0,50c-333.325,0-666.685,0-1000,0C0,724.513,0,363.483,0,2.5
					c333.325,0,666.685,0,1000,0c0,90.667,0,181.333,0,272c-5.608-6.725-12.576-12.09-20-17c5.544,9.79,12.736,17.93,20,26
					C1000,438.169,1000,592.83,1000,747.5z M241,80.5c1.78,0.553,4.153,0.514,5,2c-5.231,5.436-12.757,8.577-18,14
					c-0.224-0.776-0.027-1.973-1-2c-2.785,2.215-5.428,4.572-8,7c-1.551-2.853-2.75-0.347-4-4c-5.685,9.985-18.588,18.074-22,27
					c-0.306-1.212,2.889-3.448,3-1c-2.064,2.658-5.845,10.673-9,6c-0.832,3.21-0.852,2.073,1,4c-7.75,6.916-8.645,20.688-18,26
					c-2.155,13.425-7.042,30.632-5,47c2.612-0.279,5.004-0.337,4,3c-1.342-0.202-1.862-4.153-2,0c-0.596,0.337,5.292,1.574,2,7
					c3.562,0.505,3.767-7.49,6-5c-0.303,0.08,2.012,6.592,2,7c3.561-4.321,0.952-8.691,6-11c4.486-0.153,5.917,2.75,8,5
					c1.704-0.629,1.646-3.021,3-4c1.805,3.376,3.901,3.478,5,3c0.299,1.966-1.35,1.983-2,3c7.395-3.816,9.902,3.804,15,4
					c0.105,2.561,0.566,4.767,2,6c2.204-2.111-1.283-2.956-1-6c6.668-6.575,22.168,6.135,14,13c1.866-3.947-1.341-0.76-2,1
					c0.182-3.834-0.818-0.363-3-1c1.132-7.925-4.705-3.843-6-8c-1.539,10.217,7.885,25.594-4,34c2.236,0.431,0.405,4.928,1,7
					c7.645-0.197,5.235,8.266,13,11c-2.257-5.746,1.753-3.577,4-7c3.522,1.714,6.449,6.262,7,8c4.049-2.986,6.431-0.789,14,1
					c-0.057-3.61-2.493-4.84-3-8c1.557-1.443,1.973-4.027,6-3c0.027-5.694-2.541-8.793-2-15c6.308-3.692,9.408-10.592,13-17
					c5.169,8.008,6.169,19.034,11,29c1.36,2.805,2.606,5.273,4,8c8.975,17.56,28.298,33.634,50,28c-0.585,6.888,3.46,12.313,3,16
					c0.521-2.857,1.479,1.614,2,2c3.869,1.108,3.558-3.535,6-1c0.299,1.966-1.35,1.983-2,3c8.646-0.453,9.739,3.293,14,8
					c0.157-1.177-0.172-2.838,1-3c3.734,0.679,7.036,5.724,11,3c1.473,7.011,10.085,4.626,15,6c0.711,0.199,1.659,2.861,2,3
					c1.601,0.653,3.38-1.19,4-1c4.447,1.367,3.798,7.402,9,8c1.019,5.103,2.821,6.53,5,12c-1.909,7.311,0.497,10.001,2,16
					c13.143,3.946,24.375,5.454,35,13c1.865,6.904,10.963,14.962,21,17c2.92,7.625,10.458,10.575,21,8c0.003,1.003-0.81,1.19-1,2
					c15.13-9.966-1.975-30.224-8-38c-0.303-8.564,9.969-13.604,18-17c-1.477-6.19-2.23-13.103-4-19c-2.672-0.578-6.248,2.958-8,0
					c4.26-4.74,9.815-8.185,15-12c-0.521,1.479-1.479,2.521-2,4c14.102,5.397,27.938,7.852,42,16c1.77,2.564,0.738,7.928,3,10
					c2.263,0.101,11.31,2.001,14,5c-0.816-7.817,3.826-10.174,9-12c38.621,12.29,79.127,20.07,118,28
					c6.444,5.374,20.832,0.816,22,11c1.036,9.033-15.602,16.018-13,27c6.306,4.535,1.438,15.678,4,25c-1.498,1.263-3.008,4.084-5,2
					c1.246-2.421,2.476-4.858,3-8c-2.655,0.345-3.375,2.625-4,5c2.927,8.148-3.165,9.294-3,19c-5.489,5.11-8.183,16.65-8,26
					c-6.766,25.234-11.219,52.781-34,62c0-1.333,0-2.666,0-4c-5.378,0.623-4.134,7.866-6,12c-18.383,10.532-21.118,35.217-36,49
					c-2.354,2.181-8.207,3.153-7,7c-19.168,17.562-43.195,36.654-73,47c-23.374,8.114-45.894,13.046-54,34
					c-1.647,13.077-12.668,11.783-19,21c-14.637,3.059-30.022,20.03-34,31c-1.893-2.719,1.745,2.665-3,1c0.08,3.727,1.499,3.229-1,5
					c1.329,2.449,3.721-1.099,4,1c-3.509,0.275,2.509,3.726-1,4c-1.985,0.509-2.288-5.517-4-2c1.047,3.287,5.715,2.952,8,5
					c-2.174,6.903,9.915,4.399,8,12c3.046-2.732,4.791-0.947,7,2c0.116-2.551,0.188-5.145,3-5c0.748,3.082-3.448,1.22-2,5
					c1.576,0.091,0.783,2.551,3,2c0.995-1.062,0.083-8.699-3-9c2.153-4.212,3.248-5.172,0-8c7.587,0.064,5.95,4.637,4,6
					c7.618-0.151,5.266,1.269,9,5c-1.72,0.395-2.563-1.483-3,0c4.341,1.613-3.793,3.937,0,5c-0.715-1.621,4.715-1.621,4,0
					c-1.208,0.212-0.615,1.11,0,2c-3.144-1.406-5.444-2.964-9-1c5.207,0.276,0.544,7.88,6,3c1.381,13.526,21.954,19.94,30,27
					c6.334,0.11,9.109-0.717,11-3c-1.705-0.409,0.21-1.289,0-3c-3.753-0.991-2.18,4.913-5,2c-0.117-1.022,4.314-2.022,1-3
					c0.306,1.213-2.889,3.448-3,1c2.811-4.087,0.79-0.572,0-4c12.15,1.354,13.632,10.135,27,11c-0.043,1.377,0.471,2.196,1,3
					c6.477,1.502,12.682,2.828,16,7c-1.343-4.55-3.963,2.081-2,3c3.704-1.167,1.193,7.105,3,10c2.213-1.439-1.259-2.439,1-3
					c4.326,1.508,0.403,5.406,7,5c1.651-0.015,0.56-2.773,2-3c1.255,3.039,5.694,1.738,9,0c-1.911-3.715,3.996,2.696,0-4
					c2.318,2.024,2.299-0.406,1-2c2.322,2.415,3.446-0.792,5-2c-1.177-0.156-2.839,0.172-3-1c5.57,0.667,0.95-2.646,2-6
					c1.003-0.003,1.19,0.811,2,1c0.299-1.966-1.351-1.982-2-3c5.449-0.741,1.996-4.869,5-7c3.232,5.677,7.523-6.985,6-5
					c0.922-1.202,5.354-2.316,6-4c1.074-2.797,0.098-3.122,3-5c7.547-4.88,8.029-7.255,14-14c3.514-3.968,8.416-5.972,10-8
					c3.002-3.844,3.875-7.814,7-11c0.508-0.517,1.65,1.297,2,1c4.68-3.973,5.554-12.201,11-13c-1.39-5.951,4.748-5.995,5-11
					c2.375,1.065-2.144,4.606,1,6c3.988-3.481,6.507-12.171,12-11c5.034-9.67,13.42-6.338,21-16c-1.485-8.994,26.868-17.396,21-24
					c4.735-1.678,0.69-2.54,2-5c2.153,4.648,6.713,0.271,3,0c7.221-7.351,8.569-10.758,13-19c1.333,0,2.667,0,4,0
					c20.444-35.179,39.501-79.62,64-114c7.296-1.5,11.893-10.597,10-18c13.521-12.48,16.797-35.203,29-49c0-2.333,0-4.667,0-7
					c5.31-15.023,12.598-28.069,21-40c13.217-6.784,29.703-10.297,36-24c2.202-1.464,4.295-3.039,8-3
					c4.334-6.333,9.777-11.556,12-20c-15.884-6.865-26.17,8.238-43,7c-10.311,11.69-20.775,23.225-38,28
					c-6.805-16.349,7.297-33.603,18-42c8.303,1.497,15.331-6.566,27-5c-4.105-22.014-27.984-18.697-52-17
					c-8.499-10.925-25.308-5.232-39-3c-0.02-13.855-18.146-20.356-27-11c-8.618-9.393-24.332-4.346-34,1
					c-5.457-3.876-10.447-8.219-16-12c-15.973-3.472-19.101,12.089-31,13c-4.771,0.365-10.057-2.719-16-3
					c-15.766-0.745-31.613-2.425-47-9c2.836-6.127-2.434-3.062-2-10c2.307-0.306,1.111,2.889,3,3c0.863-3.461,3.814-13.905-1-9
					c-3.049-8.139-3.966-12.866-7-20c-2.333,0-4.667,0-7,0c-1.899,1.767-2.371,4.962-4,7c-3.657,0.658-3.836-2.164-7-2
					c1.965,9.325-4.729,16.775-8,24c-15.648-1.018-27.917-5.416-41-9c3.322-0.535,6.524-4.746,10-2c0.88-17.778-14.413-16.138-23-20
					c11.149-9.195,29.252-11.521,38,1c1.012-3.322,7.278-1.388,9-4c0.224-0.776,0.027-1.972,1-2c-2.02-35.314-30.857-43.809-34-78
					c1.582-2.085,3.26-4.074,4-7c-2.939-35.728-14.512-62.821-29-87c3.325-1.578-0.995-4.592,3-5c-2.313-29.835-14.748-41.5-35-53
					c1.938-3.808-4.359-7.083-2-5c0.292,0.614,2.487,3.85,0,4c-5.569-0.098-8.797-2.536-14-3c1.468-2.358,2.111-1.86,1-5
					c-12.736,5.878-24.792,6.198-35-4c-7.871,2.444-12.475-0.552-14-6c-5.056-1.827-12.14,1.864-16,1c-0.485,1.182-1.066,2.267-2,3
					c-19.197,3.145-38.357,3.438-57,6c-6.318,10.409-22.224,6.425-29,15c-3.22-0.22-4.231,1.769-8,1c-2.802,3.865-7.126,6.208-13,7
					c-1.494-2.333,0.337-4.309-1-5C246.004,73.505,242.641,76.141,241,80.5z M251,271.5c-0.012-1.009-1.753-1.258-2,0
					C250.122,271.399,250.557,272.954,251,271.5z M356,43.5C359.042,46.23,353.271,40.458,356,43.5L356,43.5z M379,43.5
					C382.369,46.538,382.032,39.804,379,43.5L379,43.5z M341,45.5C338.583,48.855,344.354,43.083,341,45.5L341,45.5z M833,48.5
					c-0.88,3.213,3.296,1.371,3,4c-2.48-0.147-4.853-0.186-5,2c1.386,0.09,1.051,2.55-1,2c1.388,3.613,3.561,6.439,4,11
					c14.915,1.638,3.168-14.404,9-18C839.284,48.85,836.716,46.457,833,48.5z M936,57.5C934.509,64.957,936.71,53.949,936,57.5
					L936,57.5z M844,71.5c0,0.667,0,1.333,0,2c2.461,1.555,2.94-3.396,1-3C844.943,71.11,844.851,71.685,844,71.5z M849,93.5
					c-18.068-4.429-44.268-5.499-58-5c1.271,4.205-2.609,8.36,1,9c2.527-1.659,2.526-2.795,6-5c14.091,3.909,30.947,5.052,43,11
					c-1.225,5.109-3.14,9.527-3,16c5.045-2.956,3.65-12.35,9-15c6.201-2.274,9.931,2.3,15,4c3.396-3.299,6.133-1.303,9,1
					C872.745,99.974,859.785,96.144,849,93.5z M220,91.5C221.158,95.452,221.158,87.549,220,91.5L220,91.5z M782,146.5
					c6.724-13.58,9.195-26.856,7-48C785.991,110.967,777.75,135.697,782,146.5z M920,172.5c8.919-14.417,15.264-36.734,15-57
					C932.139,136.64,926.275,154.775,920,172.5z M888,124.5c0.877-2.06-2.594-4.491-3-2C886.427,122.74,886.687,124.147,888,124.5z
					 M886,135.5c1.984,5.306,8.12,3.573,14,3c1.668-2.646-2.835-6.034-4-9C890.126,128.96,885.844,130.011,886,135.5z M782,154.5
					c3.204-0.793,4.204-13.341,3-12C784.247,146.748,781.33,148.831,782,154.5z M889,156.5c2.301-3.366,5.776-5.557,11-6
					c-0.279,2.279,0.241,3.759,2,4c0.272-6.347,6.634-6.494,11-4C910.649,137.07,880.612,145.022,889,156.5z M939,207.5
					c1.333,0,2.667,0,4,0c2.061,6.511,10.729,16.396,16,8c-5.024-2.009-6.016-7.426-8-10c-0.223,1.428-4.977-0.928-8,0
					c-12.132-14.868-23.314-30.685-36-45c-1,0-2,0-3,0C914.023,177.81,928.204,190.963,939,207.5z M810,190.5
					c-2.562,0.467-5.669-3.537-7-1C804.574,190.021,808.355,193.351,810,190.5z M166,213.5
					C165.155,219.416,166.573,209.489,166,213.5L166,213.5z M200,230.5c0.13-7.541-3.874-6.07-8-8
					C193.063,226.771,194.396,230.771,200,230.5z M999,257.5c-9.123-8.877-19.139-16.861-32-22c-1.967-3.035-4.271-9.933-10-6
					C970.703,238.466,988.27,248.896,999,257.5z M381,368.5c-0.279,2.363-2.671-1.146-4-1c0.279,2.279-0.241,3.759-2,4
					c-4.364-5.652-7.34-2.644-12-8c-2.537,4.133-3.713-0.801-6-2c-10.224-5.359-22.272-11.796-21-24c-1.177-0.157-2.838,0.172-3-1
					c1.412-2.591-4.027-15.173-8-19c-9.084,16.999-47.02,1.595-44,31c-1.768,0.898-2.919,2.414-5,3c-6.042-5.837-12.752-5.759-21-1
					c-0.138-4.153-0.658-0.202-2,0c-0.738-3.934-9.831-7.479-9-4c-3.104-1.167,0.534-2.888-3-3c-2.71-2.319-3.417,5.873-8,5
					c1.182,5.515-3.467,5.199-6,7c-2.318,12.863-4.036,17.356,4,28c-2.333,0-4.667,0-7,0c-1.726,3.397-0.696,7.329,0,11
					c-3.468,0.483-2.552,3.796-2,6c-3.164-0.164-3.342,2.658-7,2c-0.313,4.354-1.155,8.179-2,12c7.925,3.408,16.959,5.707,23,11
					c34.193,0.998,51.581,21.446,70,35c13.492,9.929,35.864,8.652,57,14c7.505-8.495,8.705-23.295,21-27
					c2.891-7.039,1.069-12.475,3-17c-7.017,2.724-18.813-10.584-15-17c-4.027-2.055-2.981-4.771-5-5c2.715-3.741-1.402-5.688-2-11
					c0.614,0.292,3.85,2.488,4,0c-1.086-0.24-2.401-1.647-1-2c1.171,1.837,1.243-2.673,3,1c4.121-6.153-2.882-6.604-6-5
					c1.632-2.368,2.551-5.449,6-6c0.395,1.72-1.484,2.563,0,3c0.658-2.995,2.138,0.957,4,0c-0.182-2.182,0.818-3.182,3-3
					c-4.431-4.653,2.453-8.849,0-14c1.184,0.293,3.777,4.028,5,1c-1.795,0.129-2.34-0.993-2-3
					C381.555,369.503,382.135,368.69,381,368.5z M366,473.5c6.684,2.258,9.212-0.971,10-7
					C371.733,464.318,366.949,469.146,366,473.5z M257,347.5C258.158,351.452,258.158,343.549,257,347.5L257,347.5z M623,389.5
					c-12.728,12.837,24.449,23.136,35,28C657.302,397.836,641.188,388.352,623,389.5z M663,409.5c0.294-2.039,2.706-1.961,3-4
					c-1.778-0.888-2.542-2.792-6-2C660.445,406.055,661.402,408.098,663,409.5z M866,403.5c-0.426,1.907-2.857,1.81-2,5
					c4.908,0.844,8.176,6.092,14,3c7.206,5.46,12.886,12.448,20,18c18.188-1.227,33.706,15.334,55,11c2.29-5.043,4.387-10.28,7-15
					C930.793,416.041,897.479,410.688,866,403.5z M656,458.5c-3.114,2.422-0.754,4.422,2,6c0.729-3.463-1.426-9.151-3-7
					C655.61,457.557,656.184,457.65,656,458.5z M703,650.5c0.667,0,1.333,0,2,0c0-0.666,0-1.333,0-2c-0.667,0-1.333,0-2,0
					C703,649.167,703,649.834,703,650.5z M697,651.5c-0.646,2.436-2.02,5.145,2,5C700.595,654.998,698.973,652.29,697,651.5z
					 M702,652.5c-1.576-0.09-0.783-2.55-3-2C698.123,652.56,701.594,654.991,702,652.5z M696,657.5c-0.776,0.225-1.973,0.028-2,1
					C694.775,658.276,695.973,658.473,696,657.5z M701,658.5c-0.261,1.557-2.193,0.693-3,0c-0.299,1.967,1.351,1.983,2,3
					c-9.468-3.31-11.061,8.26-14,16c3.64,5.316-2.08,4.904,3,11c1.333,0,2.667,0,4,0c0.983-2.266-0.344-3.633,4-4
					c0.394-3.558,0.356-5.992,1-7c2.88,2.974,1.735-2.503,5-2C703.72,664.264,703.039,664.735,701,658.5z M692,661.5
					C689.583,664.855,695.354,659.084,692,661.5L692,661.5z M609,738.5c-0.776,0.225-1.973,0.028-2,1
					C607.776,739.276,608.973,739.473,609,738.5z M433,763.5c-0.776,0.225-1.973,0.028-2,1
					C431.776,764.276,432.973,764.473,433,763.5z M433,765.5c-0.776,0.225-1.973,0.028-2,1
					C431.776,766.276,432.973,766.473,433,765.5z M547,839.5c3.169,0.46,6.259,4.903,3,6c2.66,0.007,2.551,2.783,4,4
					c2.105-13.604,2.012-23.278,6-35C550.114,817.676,547.113,829.417,547,839.5z M892,858.5
					C893.158,862.452,893.158,854.549,892,858.5L892,858.5z M895,858.5C892.271,861.542,898.042,855.771,895,858.5L895,858.5z
					 M893,862.5C894.158,866.452,894.158,858.549,893,862.5L893,862.5z M886,867.5c0.261-1.556,2.193-0.693,3,0
					c0.045-1.826-2.111-6.398-3-4C889.002,863.507,881.787,866.283,886,867.5z M861,885.5c0.662,4.8-0.165,4.168,2,5
					c-1.852,1.928-1.832,0.79-1,4c-4.035,0.545-0.512,5.344-7,6c1.22,0.114,2.368,0.3,2,2c-6.095-3.256-0.727,4.078-7,1
					c-0.096,1.572,0.134,3.468-2,3c0.644,5.064,1.066,6.881,0,11c1.721,0.395,2.563-1.483,3,0c-0.318,2.349-3.095,2.238-4,4
					c2.279-0.279,3.759,0.241,4,2c-2.104,1.23-0.646,6.021-3,7c0.859-5.396-7.618-1.259-6,1c-0.113-1.22-0.299-2.367-2-2
					c0.178,5.082-3.378,0.22-4,4c3.391,2.642-3.304,4.39,0,8c0.042-4.325,3.183,2.735,4,4c-1.182-0.144-2.268-1.78-3,0
					c1.387,1.613,2.064,3.937,4,5c4.694-0.857,10.424-11.983,7-16c1,0,2,0,3,0c-3.206-3.39,1.545-5.37,1-9
					c8.51,4.869,4.834-13.597,12-20c3.305-2.953,8.528-15.342,11-18c-0.365,0.394,0.737,2.426,1,2c3.322-5.386,3.399-11.06,8-14
					c-1.122-0.211-1.557-1.109-2-2c1.427,0.24,1.687,1.647,3,2c0.075-1.741-0.224-3.109-1-4c1.44,1.119,2.44,1.078,3-1
					c-1.209-0.211-0.615-1.109,0-2c-2.729,0.729-2.013-1.986-4-2c-3.648,4.438-9.999,6.698-6,14c0.225-0.775,0.027-1.972,1-2
					c0.302,2.635-1.385,3.282-4,3c0.781-4.213-8.631,1.563-11,1C865.49,882.907,863.06,886.377,861,885.5z M861,878.5
					C858.271,881.542,864.042,875.771,861,878.5L861,878.5z M846,906.5C842.88,911.265,848.94,903.856,846,906.5L846,906.5z
					 M844,926.5c1.158,2.438,4.71-1.115,2-2C845.988,925.822,844.247,925.414,844,926.5z M822,941.5c3.866-2.188,8.103-0.487,11-5
					c-2.737-2.929-3.967-7.366-9-8C820.302,931.882,819.042,938.936,822,941.5z M836,957.5c2.874,0.208,5.08-0.253,6-2
					c-2.826-0.826-2.591,1.41-5,1c0.043-1.376-0.471-2.195-1-3c-0.306-2.306,2.889-1.11,3-3
					C833.599,950.152,833.693,954.98,836,957.5z M842,952.5C843.158,956.452,843.158,948.549,842,952.5L842,952.5z M840,953.5
					C843.806,955.403,834.715,950.857,840,953.5L840,953.5z M830,961.5c-6.191-1.846-4.621,8.164-10,6c0.102,3.249,5.515,4.192,3,7
					c3.767,0.186,4.554,1.795,6,2c0.534,1.44-3.896,2.44-1,3c1.666-2.35-0.09,0.366,0,2c1.667,0,3.333,0,5,0
					c-1.962-4.244,2.188-5.824,3-5c0.721-2.314-2.805-11.045,1-11c0.91-6.429-5.486-3.146-3-8c-3.078-0.744-1.922,2.745-5,2
					c0.003-0.555-0.811-1.135-1,0C829.122,959.712,829.557,960.61,830,961.5z M819,1000.5c-0.41,1.705-1.29-0.21-3,0
					c0.213,3.213-3.566,2.435-5,4c-0.003-1.003,0.811-1.189,1-2c-1.333,0-2.667,0-4,0c-0.299,1.967,1.351,1.983,2,3
					c-2.355,0.023-2.944-1.722-6-1c0,1.334,0,2.667,0,4c2.979-2.012,5.439,3.688,8-1c0.078,4.448,6.927-1.447,4,3
					c2.729,0.091,2.013-1.665,4,0c1.493-2.332-0.337-4.308,1-5c0.111,0.796,3.306,3.031,3,1
					C821.657,1003.033,817.111,1003.458,819,1000.5z M814,1000.5c-1.009,0.012-1.258,1.753,0,2
					C813.898,1001.379,815.453,1000.943,814,1000.5z M822,1001.5C825.042,1004.229,819.271,998.459,822,1001.5L822,1001.5z
					 M767,1040.5c15.014,0.219,24.188,6.92,33-7c-0.862-2.471-3.708-2.959-5-5c-0.15,2.488-3.387,0.293-4,0
					c-13.645,11.612-43.356-1.931-56,9c10.183,5.588,25.895-6.412,32-2C764.769,1035.647,768.298,1038.021,767,1040.5z"/>
				<path fill-rule="evenodd" clip-rule="evenodd" d="M473,199.5c2.65-2.35,5.334-4.666,10-5c12.558,12.191-6.517,24.505-13,33
					c0.552-2.204,1.468-5.517-2-6c6.897-6.088-0.46-13.597-3-19c-2.348,0.319-3.753,1.58-7,1c0.296-3.371,4.434-2.9,5-6
					C456.991,199.73,474.954,192.186,473,199.5z"/>
				<path fill-rule="evenodd" clip-rule="evenodd" d="M367,380.5c0.102-1.907,3.727,0.797,5,1c-2.672,1.73-0.167,2.929-4,4
					c-1.119,2.897-1.078-1.534,1-1C368.862,382.638,368.342,381.158,367,380.5z"/>
				<path fill-rule="evenodd" clip-rule="evenodd" d="M375,375.5c-3.088-1.298,2.872-1.318,2,1
					C376.14,378.408,376.406,375.42,375,375.5z"/>
				<path fill-rule="evenodd" clip-rule="evenodd" d="M238,388.5C235.271,385.458,241.042,391.23,238,388.5L238,388.5z"/>
				<path fill-rule="evenodd" clip-rule="evenodd" d="M244,393.5C241.271,390.458,247.042,396.23,244,393.5L244,393.5z"/>
				<path fill-rule="evenodd" clip-rule="evenodd" d="M689,668.5C689.873,665.771,692.347,671.542,689,668.5L689,668.5z"/>
				<path fill-rule="evenodd" clip-rule="evenodd" d="M599,721.5c-0.261-3.26,1.188-4.812,4-5c-0.293,1.184-4.027,3.778-1,5
					C601.563,722.984,600.72,721.106,599,721.5z"/>
				<path fill-rule="evenodd" clip-rule="evenodd" d="M422,760.5c-1.555-3.555,3.396-0.604,3-3c4.133,1.117-4.5,3.251,1,3
					C425.342,763.495,423.862,759.544,422,760.5z"/>
				<path fill-rule="evenodd" clip-rule="evenodd" d="M425,764.5C422.271,761.459,428.042,767.229,425,764.5L425,764.5z"/>
				<path fill-rule="evenodd" clip-rule="evenodd" d="M824,969.5C825.885,966.246,821.151,974.421,824,969.5L824,969.5z"/>
			</g>
		</g>
	</g>
</g>
<path fill="none" d="M628,408.5c-2.5,0-2.5-2-5-3.5s-5-7.5-5-7.5l-1-4V389l-6.5-3.5c0,0-8-1.5-12-1.5s-5-1-8-1.5s-4.5-1-7-1.5
	s-9.5-3-9.5-3h-7h-8.5l7.5,6.5l8,6l8,7l10,6.5c0,0,6,3.5,8,4.5s12,4.5,13.5,5.5s14.5,3,14.5,3v-3.5C628,413.5,630.5,408.5,628,408.5
	z"/>
</svg>
