<?xml version="1.0" encoding="utf-8"?>
<!-- Generator: Adobe Illustrator 15.0.0, SVG Export Plug-In . SVG Version: 6.00 Build 0)  -->
<!DOCTYPE svg PUBLIC "-//W3C//DTD SVG 1.1//EN" "http://www.w3.org/Graphics/SVG/1.1/DTD/svg11.dtd">
<svg version="1.1" id="Layer_1" xmlns="http://www.w3.org/2000/svg" xmlns:xlink="http://www.w3.org/1999/xlink" x="0px" y="0px"
	 width="1000px" height="1083px" viewBox="0 0 1000 1083" enable-background="new 0 0 1000 1083" xml:space="preserve">
<g>
	<g>
		<defs>
			<path id="SVGID_3_" d="M961.333,424.5c-24.315-6.054-48.714-11.854-72.979-18.082c-6.824-1.752-16.358-3.245-18.448-11.596
				c-1.357-5.426,1.313-9.745-6.108-9.6c-8.695,0.174-17.956,4.696-26.866,5.635c-4.613,0.484-17.401,0.13-18.264-5.024l14-4.667v-9
				l-10.333-11l-10-4.333l-17,0.667c0,0-11-0.667-12.333-1s-5-2.333-7-2.667s-8.667-2.667-8.667-2.667l-12.667,1.333
				c0,0-6-0.333-6-1.333S741,350.834,741,350.834s-1.334-3-2.334-3.667s-2.333-3.667-5.666-6s-9.667-1.333-9.667-1.333L715,342.167
				c-2.092,0.586-6.086,0.939-8.021-0.208c0.312-0.4,0.648-0.999,1.018-1.458c-4.385-2.09-8.513-1.726-13.272-1.097
				c-4.431,0.585-5.802,3.271-9.812,4.124c-9.701,2.057-15.554-8.947-23.688-10.485c-12.801-2.42-22.592,10.727-35.407,10.616
				c-11.592-0.102-22.859-2.642-34.017-5.553c-3.536-0.925-12.947-1.808-15.413-4.371c-2.803-2.919-0.672-9.97-1.986-13.998
				c-1.45-4.438-5.695-6.789-7.764-10.786c-0.667-1.29-2.189-10.764-2.302-10.784c-1.458-0.268-4.104-0.777-5.796-0.403
				c-2.848,0.629-4.237,3.544-6.916,4.436c-3.19,1.061-6.447-0.674-9.712-0.034c-3.24,0.634-7.586,2.13-10.516,3.624
				c-6.2,3.164-10.387,10.145-13.471,16.012c-1.39-0.45-9.152-2.812-9.426-3.969l-1.25-5.333l-2-3.083c0,0-9.5-10.417-2.25-5.75
				s24.917-5.583,24.917-5.583s3.75-7.415,3.5-14.165s-29.584-52.5-30.084-52.833s-2.583-3.333-3.083-4.333s-1.167-2.083-1.25-2.333
				s0-2.167,0-2.167s0-2.25,0-2.5s0.667-1.583,0.667-1.583l1.833-1.667l2.417-1.916c2.766-2.194,0.159-6.25-0.52-8.572
				c-1.946-6.655-0.912-13.755-2.729-20.437c-2.247-8.272-5.574-16.143-7.688-24.465c-1.264-4.962-1.785-10.088-3.822-14.838
				c-2.473-5.765-6.957-10.376-8.539-16.548c-2.013-7.854-0.085-16.149-0.396-24.126c-0.489-12.603-7.821-20.553-15.725-29.634
				c-4.286-4.925-8.513-11.806-13.999-15.463c-3-2-17.5-10.5-20-11s-24.5-2-27-2S363,45,359,44s-22,0-30.5,0s-13,4.5-16,4.5
				s-28,5-28,5l-27.5,12L231,77l-34,20l-18.5,25l-12,22l-8.5,59l3,24.5l14,37.5l11,24.5l10.5,13l8,14l12,18v27l-4.204,25
				c0,0-0.963,6.5-0.296,7s0,7,0,7l-2.833,3.833l-6.5,7.833l-10,2.333L184,417.833l-13.333,9.333l-12.667,6
				c-3.831,1.595-8.807,2-10.355,6.014c-2.387,6.188,2.935,12.447-0.227,18.586c-3.203,6.219-11.569,7.514-16.809,11.408
				c-3.927,2.919-6.625,6.578-9.13,10.729c-5.598,9.271-11.922,17.234-18.73,25.646c-6.036,7.455-15.121,15.146-18.598,24.194
				c-3.663,9.533-1.625,19.381-6.534,28.799c-4.169,7.999-7.869,16.366-9.989,25.162c-1.812,7.518-1.164,15.329-2.96,22.797
				l-6,25.334V656.5v14L66,685.166v14v20l6,30v16c0,0,0.667,24,4.667,26.668c4,2.666,0,24,0,24L80,843.166V854.5l4.667,6.666
				l4,17.334l4.667,26l3.333,19.334l2.667,14.164c0,0,2,9.668,2,10.168s2.833,14,3,15.5s1.5,9.832,1.833,10.666s1,10.166,1,10.166
				s0.833,11.834,1.167,12.668c0.333,0.832,2.167,11.166,2.167,11.166l1.5,10.5v13.668l4,12.668v20.666l3.333,19.666H156h210h225
				v-12v-14l-3-17l-2-17l-4-10l-3-11l-8-31l-6-29l3-15l9,4c0,0,13,5,25,5s20,0,20,0l17-4l14-19l10-29l8-32l13-36l16-77l16-91l-2-19
				l3-19l7.333-15.332L735,579.834l8.666-15.307L750,559.5c0,0,10.666-12.332,10.666-13.332s8.667-14.667,8.667-14.667l5-6.667
				l6-9.667c0,0,3-8,3.667-9.333s3.333-10.667,3.333-10.667l4-10L795,472.834l7-16l14.333-15.333c0,0,132.333,30.333,137,29.667
				s8.333-17,11-25.333S961.333,424.5,961.333,424.5z M630.5,547l-8,13l-16.667,19.668c0,0-21.5,24.5-22.167,24.5
				s-15.5,12.668-15.5,12.668L555,630.668l-20.5,12.5l-20.334,8.834l-6.666-2l-5.667-2.5l-11.167-15.5c0,0-13-12.166-13.667-12.834
				c-0.667-0.666-11.5-16.5-11.5-16.5s-14.333-21.5-16.333-23.5s-9.5-11.5-10.417-12.332c-0.917-0.834-4.917-6.834-7.25-9.5
				s-6.5-13.834-8.667-16.001s-7.667-7.667-9.167-9.333s-8.5-6.333-9-6.667s-6.333-7-6.333-7s-5.167-3.834-6-5
				s-2.667-4.667-4.5-7.667s-2.167-5.333-2.167-6s2-6,2-6.667s1.167-6.333,1.167-6.333L388,483.501l-2.667-3.5l-5.667-2
				l-2.167-1.167c0,0,5-9.667,5.167-10.833s1.5-4.833,2.667-6s3.667-2.833,3.667-2.833s7.833-6,10.333-7.333s8-5.5,8.667-5.833
				s7.167-4.833,7.167-4.833s7.833-2.167,8.5-2.333s16-3.167,16.5-3.167s18.5-4.333,19-4.5s17.167-5,18.833-5.5s8.833-9,9.667-9.667
				s1.667-8.833,1.667-8.833l-2.167-11.333l-3-8.833c0,0,2.5-5,3.167-6.167s6.667-6.667,7.5-7.167s5.167-4.333,5.167-4.333
				L518.5,370l12.5,3l15,5l10.5,7l13,14l11,9.5l17,11.5l24,11.5l5.5,5l-2.5,13l1.5,17l3.5,34.5l5,35.5L630.5,547z"/>
		</defs>
		<clipPath id="SVGID_1_">
			<use xlink:href="#SVGID_3_"  overflow="visible"/>
		</clipPath>
		<path clip-path="url(#SVGID_1_)" d="M305,242.5c-6.333-1-6.961,3.706-12,4c1.207-7.793,9.299-8.701,12-15
			c-4.581-4.752-12.759-5.908-17-11c-3.695,0.638-9.961-1.295-12,1C281.73,194.746,324.208,219.425,305,242.5z"/>
		<path clip-path="url(#SVGID_1_)" d="M448,223.5c2.269,0.432,11.926,7.373,19,3c3.962,0.309-1.118,3.473,3,3
			c0.757,6.09-2.218,8.449-4,12c-12.208-1.125-11.555-15.112-24-16C443.174,222.96,450.784,224.722,448,223.5z"/>
		<path clip-path="url(#SVGID_1_)" d="M230,232.5C231.158,228.549,231.158,236.452,230,232.5z"/>
		<path clip-path="url(#SVGID_1_)" d="M231,236.5c1.483,0.85,2.15,2.517,2,5C230.814,241.354,230.853,238.981,231,236.5z"/>
		<path clip-path="url(#SVGID_1_)" d="M323,266.5c-9.06,4.511-12.044-5.131-12-13c-4.309,0.54-3.241,2.654-8,1
			C310.49,236.161,319.33,257.852,323,266.5z"/>
		<path clip-path="url(#SVGID_1_)" d="M352,323.5c0.028-0.972,1.224-0.776,2-1C353.973,323.473,352.776,323.277,352,323.5z"/>
		<path clip-path="url(#SVGID_1_)" d="M562,325.5c0.161-1.172,1.823-0.843,3-1C564.839,325.672,563.177,325.344,562,325.5z"/>
		<path clip-path="url(#SVGID_1_)" d="M565,329.5c0.247-1.258,1.988-1.009,2,0C566.557,330.954,566.122,329.399,565,329.5z"/>
		<path clip-path="url(#SVGID_1_)" d="M277,353.5c0.027-0.973,1.224-0.776,2-1C278.973,353.473,277.776,353.277,277,353.5z"/>
		<path clip-path="url(#SVGID_1_)" d="M282,366.5c0.247-1.258,1.988-1.009,2,0C283.557,367.954,283.122,366.399,282,366.5z"/>
		<path clip-path="url(#SVGID_1_)" d="M375,382.5c3.213,1.129-0.963,2.854-3,2c-0.409-2.41,1.826-2.173,1-5
			C376.749,379.071,373.062,385.509,375,382.5z"/>
		<path clip-path="url(#SVGID_1_)" d="M368,393.5c0.027-0.972,1.224-0.776,2-1C369.973,393.473,368.776,393.277,368,393.5z"/>
		<path clip-path="url(#SVGID_1_)" d="M365,404.5c0.027-0.973,1.224-0.776,2-1C366.973,404.473,365.776,404.276,365,404.5z"/>
		<path clip-path="url(#SVGID_1_)" d="M728,561.5c-0.814,3.52-4.64,4.027-6,7C717.083,565.532,723.505,558.66,728,561.5z"/>
		<path clip-path="url(#SVGID_1_)" d="M617,707.5c0.161-1.171,1.823-0.843,3-1c0.994,5.328-2.92,5.747-3,10
			c-1.312-1.02-3.688-0.979-5-2c1.385-2.615,3.168-4.831,6-6C618.184,707.649,617.61,707.558,617,707.5z"/>
		<path clip-path="url(#SVGID_1_)" d="M601,713.5C603.488,709.601,602.458,716.814,601,713.5z"/>
		<path clip-path="url(#SVGID_1_)" d="M612,717.5C613.158,713.549,613.158,721.452,612,717.5z"/>
		<path clip-path="url(#SVGID_1_)" d="M417,751.5c0.667,0,1.333,0,2,0c0,0.667,0,1.334,0,2c-0.667,0-1.333,0-2,0
			C417,752.834,417,752.167,417,751.5z"/>
		<path clip-path="url(#SVGID_1_)" d="M426,754.5c0.027-0.973,1.224-0.775,2-1C427.973,754.473,426.776,754.276,426,754.5z"/>
		<path clip-path="url(#SVGID_1_)" d="M552,795.5c0.027-0.973,1.225-0.775,2-1C553.973,795.473,552.775,795.276,552,795.5z"/>
		<path clip-path="url(#SVGID_1_)" d="M539,812.5C540.158,808.549,540.158,816.452,539,812.5z"/>
		<path clip-path="url(#SVGID_1_)" d="M517,813.5c0.805,0.529,1.623,1.044,3,1c-0.354,1.312-1.761,1.573-2,3
			c-1.086-0.247-0.678-1.988-2-2C516.189,814.69,517.003,814.504,517,813.5z"/>
		<path clip-path="url(#SVGID_1_)" d="M858,870.5C861.354,868.084,855.583,873.855,858,870.5z"/>
		<path clip-path="url(#SVGID_1_)" d="M878,876.5C879.158,872.55,879.158,880.451,878,876.5z"/>
		<path clip-path="url(#SVGID_1_)" d="M831,913.5c0.027-0.973,1.225-0.775,2-1C832.973,913.473,831.775,913.276,831,913.5z"/>
		<path clip-path="url(#SVGID_1_)" d="M815,1003.5c1.312,0.354,1.573,1.761,3,2C817.594,1007.991,814.123,1005.56,815,1003.5z"/>
		<path clip-path="url(#SVGID_1_)" fill="#9FFFAA" d="M955,790.5c-0.84,1.255-3.43,5.576-8,6c7.443,3.693-10.154,2.251-10,8
			c-0.891-0.442-1.789-0.878-2-2c-2.259,0.561,1.213,1.561-1,3c-3.369-3.461-1.796,2.443-5,2c1.065-3.878-11.111,2.856-8,6
			c-2.479,2.958-12.082,2.073-14,10c-5.953-1.552-8.146,6.323-13,7c3.534,1.837,0.036,2.494-1,5c-1.276-1.635-9.553,4.411-12,8
			c0.56,2.26,1.56-1.212,3,1c-0.566,0.935-2.78,1.516-1,2c-3.354,0.297-9.93,10.963-14,8c2.259,3.376,1.211,6.253-0.874,8.867
			c1.97,0.675,3.583,2.348,3.374,4.633c-0.383,4.193-0.89,8.379-1.531,12.538c2.423-0.778,4.407-1.064,4.031,0.962
			c2.615,0.282,4.302-0.365,4-3c-0.973,0.028-0.775,1.225-1,2c-3.999-7.302,2.352-9.562,6-14c1.987,0.014,1.271,2.729,4,2
			c-0.615,0.891-1.209,1.789,0,2c-0.56,2.078-1.56,2.119-3,1c0.776,0.891,1.075,2.259,1,4c-1.312-0.354-1.573-1.76-3-2
			c0.443,0.891,0.878,1.789,2,2c-4.601,2.94-4.678,8.614-8,14c-0.263,0.426-1.365-1.606-1-2
			c-2.422,2.604-7.485,14.547-10.797,17.805c-1.631,5.062-3.55,10.023-5.795,14.852c-0.654,2.931-1.412,5.258-2.951,5.938
			c-0.624,1.163-1.267,2.317-1.933,3.462c2.185,0.945,3.771,3.197,2.797,5.773c-1.509,3.992-3.725,10.123-7.095,14.685
			c-1.878,11.431-6.956,22.43-10.905,33.315c-1.397,3.854-6.758,4.883-8.931,1.645c-0.022,0.118-0.047,0.237-0.069,0.355
			c-1.116,5.621-9.875,4.216-9.821-1.329c0.032-3.351,0.257-6.688,0.719-9.967c-0.992,0.771-1.849,1.646-2.472,2.684
			c-4.029,6.719,0.234,14.039,4.195,19.635c4.46,6.301,9.107,12.505,10.379,20.319c0.862,5.304-6.174,9.124-9.14,3.854
			c-0.332-0.593-0.697-1.218-1.087-1.858c-0.807,1.855-1.852,3.638-2.847,5.162c-0.279,0.428-0.575,0.847-0.859,1.271
			c13.32,0.036,26.644,0.038,39.965-0.107c24.807-0.273,50.287-0.004,74.938-3.079c14.918-1.861,43.371-10.152,55.055,1.359
			c3.988,0.291,7.896,0.684,11.653,1.229v-251C984.383,776.248,969.851,791.641,955,790.5z M886,867.5c-4.213-1.217,3.002-3.993,0-4
			c0.889-2.398,3.045,2.174,3,4C888.193,866.807,886.261,865.944,886,867.5z"/>
		<path clip-path="url(#SVGID_1_)" d="M1000,274.5V2.5H0v1083h1000v-50 M192,222.5c4.126,1.93,8.13,0.459,8,8
			C194.396,230.771,193.063,226.771,192,222.5z M366,473.5c0.949-4.354,5.733-9.182,10-7C375.212,472.529,372.684,475.758,366,473.5
			z M384,447.5c-12.295,3.705-13.495,18.505-21,27c-21.136-5.348-43.508-4.071-57-14c-18.419-13.554-35.807-34.002-70-35
			c-6.041-5.293-15.075-7.592-23-11c0.845-3.821,1.687-7.646,2-12c3.658,0.658,3.836-2.164,7-2c-0.552-2.204-1.468-5.517,2-6
			c-0.696-3.671-1.726-7.603,0-11h7c-8.036-10.644-6.318-15.137-4-28c2.533-1.801,7.182-1.485,6-7c4.583,0.873,5.29-7.319,8-5
			c3.534,0.112-0.104,1.833,3,3c-0.831-3.479,8.262,0.066,9,4c1.342-0.202,1.862-4.153,2,0c8.248-4.759,14.958-4.837,21,1
			c2.081-0.586,3.232-2.102,5-3c-3.02-29.405,34.916-14.001,44-31c3.973,3.827,9.412,16.409,8,19c0.162,1.172,1.823,0.843,3,1
			c-1.272,12.204,10.776,18.641,21,24c2.287,1.199,3.463,6.133,6,2c4.66,5.356,7.636,2.348,12,8c1.759-0.241,2.279-1.721,2-4
			c1.329-0.146,3.721,3.363,4,1c1.135,0.19,0.555,1.003,0,1c-0.34,2.007,0.205,3.129,2,3c-1.223,3.028-3.816-0.707-5-1
			c2.453,5.151-4.431,9.347,0,14c-2.182-0.182-3.182,0.818-3,3c-1.862,0.957-3.342-2.995-4,0c-1.484-0.438,0.395-1.28,0-3
			c-3.449,0.551-4.368,3.632-6,6c3.118-1.604,10.121-1.153,6,5c-1.757-3.673-1.829,0.837-3-1c-1.401,0.353-0.086,1.76,1,2
			c-0.15,2.488-3.386,0.292-4,0c0.598,5.312,4.715,7.259,2,11c2.019,0.229,0.973,2.945,5,5c-3.813,6.416,7.983,19.724,15,17
			C385.069,435.025,386.891,440.461,384,447.5z M433,765.5c-0.027,0.973-1.224,0.776-2,1C431.027,765.528,432.224,765.725,433,765.5
			z M431,764.5c0.027-0.972,1.224-0.775,2-1C432.973,764.473,431.776,764.276,431,764.5z M554,849.5c-1.449-1.217-1.34-3.993-4-4
			c3.259-1.097,0.169-5.54-3-6c0.113-10.083,3.114-21.824,13-25C556.012,826.222,556.105,835.896,554,849.5z M607,739.5
			c0.027-0.972,1.224-0.775,2-1C608.973,739.473,607.776,739.276,607,739.5z M703,675.5c-3.265-0.503-2.12,4.974-5,2
			c-0.644,1.008-0.606,3.442-1,7c-4.344,0.367-3.017,1.734-4,4h-4c-5.08-6.096,0.64-5.684-3-11c2.939-7.74,4.532-19.31,14-16
			c-0.649-1.017-2.299-1.033-2-3c0.807,0.693,2.739,1.557,3,0C703.039,664.735,703.72,664.264,703,675.5z M694,658.5
			c0.027-0.972,1.224-0.775,2-1C695.973,658.473,694.775,658.276,694,658.5z M699,656.5c-4.02,0.145-2.646-2.564-2-5
			C698.973,652.29,700.595,654.998,699,656.5z M699,650.5c2.217-0.55,1.424,1.91,3,2C701.594,654.991,698.123,652.56,699,650.5z
			 M705,650.5h-2v-2h2V650.5z M855,407.5c-3.705-0.039-5.798,1.536-8,3c-6.297,13.703-22.783,17.216-36,24
			c-8.402,11.931-15.69,24.977-21,40v7c-12.203,13.797-15.479,36.52-29,49c1.893,7.403-2.704,16.5-10,18
			c-24.499,34.38-43.556,78.821-64,114h-4c-4.431,8.242-5.779,11.649-13,19c3.713,0.271-0.847,4.648-3,0c-1.31,2.46,2.735,3.322-2,5
			c5.868,6.604-22.485,15.006-21,24c-7.58,9.662-15.966,6.33-21,16c-5.493-1.171-8.012,7.519-12,11c-3.144-1.394,1.375-4.935-1-6
			c-0.252,5.005-6.39,5.049-5,11c-5.446,0.799-6.32,9.027-11,13c-0.35,0.297-1.492-1.517-2-1c-3.125,3.186-3.998,7.156-7,11
			c-1.584,2.028-6.486,4.032-10,8c-5.971,6.745-6.453,9.12-14,14c-2.902,1.878-1.926,2.203-3,5
			c-0.617,1.606-4.672,2.694-5.844,3.835c1.012-0.799-3.059,10.607-6.156,5.165c-3.004,2.131,0.449,6.259-5,7
			c0.649,1.018,2.299,1.034,2,3c-0.81-0.189-0.997-1.003-2-1c-1.05,3.354,3.57,6.667-2,6c0.161,1.172,1.823,0.844,3,1
			c-1.554,1.208-2.678,4.415-5,2c1.299,1.594,1.318,4.024-1,2c3.996,6.696-1.911,0.285,0,4c-3.306,1.738-7.745,3.039-9,0
			c-1.44,0.227-0.349,2.985-2,3c-6.597,0.406-2.674-3.492-7-5c-2.259,0.561,1.213,1.561-1,3c-1.807-2.895,0.704-11.167-3-10
			c-1.349-0.631-0.534-3.957,0.543-4.504c-3.502-3.019-8.919-4.191-14.543-5.496c-0.529-0.804-1.043-1.623-1-3
			c-13.368-0.865-14.85-9.646-27-11c0.79,3.428,2.811-0.087,0,4c0.111,2.448,3.306,0.213,3-1c3.314,0.979-1.117,1.979-1,3
			c2.82,2.913,1.247-2.991,5-2c0.21,1.711-1.705,2.591,0,3c-1.891,2.283-4.666,3.11-11,3c-8.046-7.06-28.619-13.474-30-27
			c-5.456,4.88-0.793-2.724-6-3c3.556-1.964,5.856-0.406,9,1c-0.615-0.89-1.208-1.788,0-2c0.715-1.621-4.715-1.621-4,0
			c-3.793-1.062,4.341-3.387,0-5c0.438-1.483,1.28,0.395,3,0c-3.734-3.731-1.382-5.151-9-5c1.95-1.363,3.587-5.936-4-6
			c3.248,2.828,2.153,3.788,0,8c3.083,0.301,3.995,7.938,3,9c-2.217,0.551-1.424-1.909-3-2c-1.448-3.78,2.748-1.918,2-5
			c-2.812-0.145-2.884,2.449-3,5c-2.209-2.947-3.954-4.732-7-2c1.915-7.601-10.174-5.097-8-12c-2.285-2.048-6.953-1.713-8-5
			c1.712-3.517,2.015,2.509,4,2c3.509-0.274-2.509-3.725,1-4c-0.279-2.099-2.671,1.449-4-1c2.499-1.771,1.08-1.273,1-5
			c4.745,1.665,1.107-3.719,3-1c3.979-10.97,19.363-27.941,34-31c6.332-9.217,17.354-7.923,19-21c8.106-20.954,30.626-25.886,54-34
			c29.805-10.346,53.832-29.438,73-47c-1.207-3.847,4.646-4.819,7-7c14.882-13.783,17.617-38.468,36-49
			c1.866-4.134,0.622-11.377,6-12v4c22.781-9.219,27.234-36.766,34-62c-0.183-9.35,2.511-20.89,8-26c-0.165-9.706,5.927-10.852,3-19
			c0.625-2.375,1.345-4.655,4-5c-0.524,3.142-1.754,5.579-3,8c1.992,2.084,3.502-0.737,5-2c-2.562-9.322,2.306-20.465-4-25
			c-2.602-10.982,14.036-17.967,13-27c-1.168-10.184-15.556-5.626-22-11c-38.873-7.93-79.379-15.71-118-28
			c-5.174,1.826-9.816,4.183-9,12c-2.69-2.999-11.737-4.899-14-5c-2.262-2.072-1.23-7.436-3-10c-14.062-8.148-27.898-10.603-42-16
			c0.521-1.479,1.479-2.521,2-4c-5.185,3.815-10.74,7.26-15,12c1.752,2.958,5.328-0.578,8,0c1.77,5.897,2.523,12.81,4,19
			c-8.031,3.396-18.303,8.436-18,17c6.025,7.776,23.13,28.034,8,38c0.19-0.81,1.003-0.997,1-2c-10.542,2.575-18.08-0.375-21-8
			c-10.037-2.038-19.135-10.096-21-17c-10.625-7.546-21.857-9.054-35-13c-1.503-5.999-3.909-8.689-2-16
			c-2.179-5.47-3.981-6.897-5-12c-5.202-0.598-4.553-6.633-9-8c-0.62-0.19-2.399,1.653-4,1c-0.341-0.139-1.289-2.801-2-3
			c-4.915-1.374-13.527,1.011-15-6c-3.964,2.724-7.266-2.321-11-3c-1.172,0.162-0.843,1.823-1,3c-4.261-4.707-5.354-8.453-14-8
			c0.65-1.017,2.299-1.034,2-3c-2.442-2.535-2.131,2.108-6,1c-0.521-0.386-1.479-4.857-2-2c0.46-3.688-3.585-9.112-3-16
			c-21.702,5.634-41.025-10.44-50-28c-1.394-2.727-2.64-5.195-4-8c-4.831-9.966-5.831-20.992-11-29c-3.592,6.408-6.692,13.308-13,17
			c-0.541,6.207,2.027,9.306,2,15c-4.027-1.027-4.443,1.557-6,3c0.507,3.16,2.943,4.39,3,8c-7.569-1.789-9.951-3.986-14-1
			c-0.551-1.738-3.478-6.286-7-8c-2.247,3.423-6.257,1.254-4,7c-7.765-2.734-5.355-11.197-13-11c-0.595-2.072,1.236-6.569-1-7
			c11.885-8.406,2.461-23.783,4-34c1.295,4.157,7.132,0.075,6,8c2.182,0.637,3.182-2.834,3,1c0.659-1.76,3.866-4.947,2-1
			c8.168-6.865-7.332-19.575-14-13c-0.283,3.044,3.204,3.889,1,6c-1.434-1.233-1.895-3.439-2-6c-5.098-0.196-7.605-7.816-15-4
			c0.65-1.017,2.299-1.034,2-3c-1.099,0.478-3.195,0.376-5-3c-1.354,0.979-1.296,3.371-3,4c-2.083-2.25-3.514-5.153-8-5
			c-5.048,2.309-2.439,6.679-6,11c0.012-0.408-2.303-6.92-2-7c-2.233-2.49-2.438,5.505-6,5c3.292-5.426-2.596-6.663-2-7
			c0.138-4.153,0.658-0.202,2,0c1.004-3.337-1.388-3.279-4-3c-2.042-16.368,2.845-33.575,5-47c9.355-5.312,10.25-19.084,18-26
			c-1.852-1.927-1.832-0.79-1-4c3.155,4.673,6.936-3.342,9-6c-0.075-1.653-1.553-1.169-2.413-0.308
			c4.093-8.416,16.007-16.198,21.413-25.692c1.25,3.653,2.449,1.147,4,4c2.572-2.428,5.215-4.785,8-7c0.973,0.027,0.776,1.224,1,2
			c5.243-5.423,12.769-8.564,18-14c-0.847-1.486-3.22-1.447-5-2c1.641-4.359,5.004-6.995,8-10c1.337,0.691-0.494,2.667,1,5
			c5.874-0.792,10.198-3.135,13-7c3.769,0.769,4.78-1.22,8-1c6.776-8.575,22.682-4.591,29-15c18.643-2.562,37.803-2.855,57-6
			c0.934-0.733,1.515-1.818,2-3c3.86,0.864,10.944-2.827,16-1c1.525,5.448,6.129,8.444,14,6c10.208,10.198,22.264,9.878,35,4
			c1.111,3.14,0.468,2.642-1,5c5.203,0.464,8.431,2.902,14,3c2.487-0.15,0.292-3.386,0-4c-2.359-2.083,3.938,1.192,2,5
			c20.252,11.5,32.688,23.165,35,53c-3.995,0.408,0.325,3.422-3,5c14.488,24.179,26.061,51.272,29,87c-0.74,2.926-2.418,4.915-4,7
			c3.143,34.191,31.98,42.686,34,78c-0.973,0.028-0.776,1.224-1,2c-1.722,2.612-7.988,0.678-9,4c-8.748-12.521-26.851-10.195-38-1
			c8.587,3.862,23.88,2.222,23,20c-3.476-2.746-6.678,1.465-10,2c13.083,3.584,25.352,7.982,41,9c3.271-7.225,9.965-14.675,8-24
			c3.164-0.164,3.343,2.658,7,2c1.629-2.038,2.101-5.233,4-7h7c3.034,7.134,3.951,11.861,7,20c4.814-4.905,1.863,5.539,1,9
			c-1.889-0.111-0.693-3.306-3-3c-0.434,6.938,4.836,3.873,2,10c15.387,6.575,31.234,8.255,47,9c5.943,0.281,11.229,3.365,16,3
			c11.899-0.911,15.027-16.472,31-13c5.553,3.781,10.543,8.124,16,12c9.668-5.346,25.382-10.393,34-1c8.854-9.356,26.98-2.855,27,11
			c13.692-2.232,30.501-7.925,39,3c24.016-1.697,47.895-5.014,52,17c-11.669-1.566-18.697,6.497-27,5
			c-10.703,8.397-24.805,25.651-18,42c17.225-4.775,27.689-16.31,38-28c16.83,1.238,27.116-13.865,43-7
			C864.777,395.944,859.334,401.167,855,407.5z M655,457.5c1.574-2.151,3.729,3.537,3,7c-2.754-1.578-5.114-3.578-2-6
			C656.184,457.65,655.61,457.557,655,457.5z M623,389.5c18.188-1.148,34.302,8.336,35,28
			C647.449,412.636,610.271,402.337,623,389.5z M660,403.5c3.458-0.792,4.222,1.112,6,2c-0.294,2.039-2.706,1.961-3,4
			C661.402,408.098,660.445,406.055,660,403.5z M251,271.5c-0.443,1.454-0.878-0.101-2,0C249.247,270.242,250.988,270.491,251,271.5
			z M953,440.5c-21.294,4.334-36.812-12.227-55-11c-7.114-5.552-12.794-12.54-20-18c-5.824,3.092-9.092-2.156-14-3
			c-0.857-3.19,1.574-3.093,2-5c31.479,7.188,64.793,12.541,94,22C957.387,430.22,955.29,435.457,953,440.5z"/>
		<path clip-path="url(#SVGID_1_)" d="M356,43.5C359.042,46.23,353.271,40.458,356,43.5z"/>
		<path clip-path="url(#SVGID_1_)" fill="#9FFFAA" d="M379,43.5C382.369,46.538,382.032,39.804,379,43.5z"/>
		<path clip-path="url(#SVGID_1_)" d="M341,45.5C338.583,48.855,344.354,43.083,341,45.5z"/>
		<path clip-path="url(#SVGID_1_)" fill="#9FFFAA" d="M936,57.5C934.509,64.957,936.71,53.949,936,57.5z"/>
		<path clip-path="url(#SVGID_1_)" d="M220,91.5C221.158,95.452,221.158,87.549,220,91.5z"/>
		<path clip-path="url(#SVGID_1_)" d="M166,213.5C165.155,219.416,166.573,209.489,166,213.5z"/>
		<path clip-path="url(#SVGID_1_)" d="M257,347.5C258.158,351.452,258.158,343.549,257,347.5z"/>
		<path clip-path="url(#SVGID_1_)" d="M692,661.5C689.583,664.855,695.354,659.084,692,661.5z"/>
		<path clip-path="url(#SVGID_1_)" fill="#9FFFAA" d="M892,858.5C893.158,862.452,893.158,854.549,892,858.5z"/>
		<path clip-path="url(#SVGID_1_)" fill="#9FFFAA" d="M895,858.5C892.271,861.542,898.042,855.771,895,858.5z"/>
		<path clip-path="url(#SVGID_1_)" fill="#9FFFAA" d="M893,862.5C894.158,866.452,894.158,858.549,893,862.5z"/>
		<path clip-path="url(#SVGID_1_)" d="M473,199.5c2.65-2.35,5.334-4.666,10-5c12.558,12.191-6.517,24.505-13,33
			c0.552-2.204,1.468-5.517-2-6c6.897-6.088-0.46-13.597-3-19c-2.348,0.319-3.753,1.58-7,1c0.296-3.371,4.434-2.9,5-6
			C456.991,199.73,474.954,192.186,473,199.5z"/>
		<path clip-path="url(#SVGID_1_)" d="M367,380.5c0.102-1.907,3.727,0.797,5,1c-2.672,1.73-0.167,2.929-4,4
			c-1.119,2.897-1.078-1.534,1-1C368.862,382.638,368.342,381.158,367,380.5z"/>
		<path clip-path="url(#SVGID_1_)" d="M375,375.5c-3.088-1.298,2.872-1.318,2,1C376.14,378.408,376.406,375.42,375,375.5z"/>
		<path clip-path="url(#SVGID_1_)" d="M238,388.5C235.271,385.458,241.042,391.23,238,388.5z"/>
		<path clip-path="url(#SVGID_1_)" d="M244,393.5C241.271,390.458,247.042,396.23,244,393.5z"/>
		<path clip-path="url(#SVGID_1_)" d="M689,668.5C689.873,665.771,692.347,671.542,689,668.5z"/>
		<path clip-path="url(#SVGID_1_)" d="M599,721.5c-0.261-3.26,1.188-4.812,4-5c-0.293,1.184-4.027,3.778-1,5
			C601.562,722.984,600.72,721.106,599,721.5z"/>
		<path clip-path="url(#SVGID_1_)" d="M422,760.5c-1.555-3.555,3.396-0.604,3-3c4.133,1.117-4.5,3.251,1,3
			C425.342,763.495,423.862,759.544,422,760.5z"/>
		<path clip-path="url(#SVGID_1_)" d="M425,764.5C422.271,761.459,428.042,767.229,425,764.5z"/>
		<path clip-path="url(#SVGID_1_)" d="M824,969.5C825.885,966.246,821.151,974.421,824,969.5z"/>
	</g>
</g>
</svg>
