<?xml version="1.0" encoding="utf-8"?>
<!-- Generator: Adobe Illustrator 15.0.0, SVG Export Plug-In . SVG Version: 6.00 Build 0)  -->
<!DOCTYPE svg PUBLIC "-//W3C//DTD SVG 1.1//EN" "http://www.w3.org/Graphics/SVG/1.1/DTD/svg11.dtd">
<svg version="1.1" id="Calque_1" xmlns="http://www.w3.org/2000/svg" xmlns:xlink="http://www.w3.org/1999/xlink" x="0px" y="0px"
	 width="30.984px" height="20.006px" viewBox="0 0 30.984 20.006" enable-background="new 0 0 30.984 20.006" xml:space="preserve">
<metadata><?xpacket begin="﻿" id="W5M0MpCehiHzreSzNTczkc9d"?>
<x:xmpmeta xmlns:x="adobe:ns:meta/" x:xmptk="Adobe XMP Core 5.0-c060 61.134777, 2010/02/12-17:32:00        ">
   <rdf:RDF xmlns:rdf="http://www.w3.org/1999/02/22-rdf-syntax-ns#">
      <rdf:Description rdf:about=""
            xmlns:dc="http://purl.org/dc/elements/1.1/">
         <dc:format>image/svg+xml</dc:format>
      </rdf:Description>
      <rdf:Description rdf:about=""
            xmlns:xmp="http://ns.adobe.com/xap/1.0/"
            xmlns:xmpGImg="http://ns.adobe.com/xap/1.0/g/img/">
         <xmp:CreatorTool>Adobe Illustrator CS5</xmp:CreatorTool>
         <xmp:CreateDate>2015-08-26T20:00:22-04:00</xmp:CreateDate>
         <xmp:ModifyDate>2015-08-26T20:00:22-04:00</xmp:ModifyDate>
         <xmp:MetadataDate>2015-08-26T20:00:22-04:00</xmp:MetadataDate>
         <xmp:Thumbnails>
            <rdf:Alt>
               <rdf:li rdf:parseType="Resource">
                  <xmpGImg:width>256</xmpGImg:width>
                  <xmpGImg:height>148</xmpGImg:height>
                  <xmpGImg:format>JPEG</xmpGImg:format>
                  <xmpGImg:image>/9j/4AAQSkZJRgABAgEASABIAAD/7QAsUGhvdG9zaG9wIDMuMAA4QklNA+0AAAAAABAASAAAAAEA&#xA;AQBIAAAAAQAB/+4ADkFkb2JlAGTAAAAAAf/bAIQABgQEBAUEBgUFBgkGBQYJCwgGBggLDAoKCwoK&#xA;DBAMDAwMDAwQDA4PEA8ODBMTFBQTExwbGxscHx8fHx8fHx8fHwEHBwcNDA0YEBAYGhURFRofHx8f&#xA;Hx8fHx8fHx8fHx8fHx8fHx8fHx8fHx8fHx8fHx8fHx8fHx8fHx8fHx8fHx8f/8AAEQgAlAEAAwER&#xA;AAIRAQMRAf/EAaIAAAAHAQEBAQEAAAAAAAAAAAQFAwIGAQAHCAkKCwEAAgIDAQEBAQEAAAAAAAAA&#xA;AQACAwQFBgcICQoLEAACAQMDAgQCBgcDBAIGAnMBAgMRBAAFIRIxQVEGE2EicYEUMpGhBxWxQiPB&#xA;UtHhMxZi8CRygvElQzRTkqKyY3PCNUQnk6OzNhdUZHTD0uIIJoMJChgZhJRFRqS0VtNVKBry4/PE&#xA;1OT0ZXWFlaW1xdXl9WZ2hpamtsbW5vY3R1dnd4eXp7fH1+f3OEhYaHiImKi4yNjo+Ck5SVlpeYmZ&#xA;qbnJ2en5KjpKWmp6ipqqusra6voRAAICAQIDBQUEBQYECAMDbQEAAhEDBCESMUEFURNhIgZxgZEy&#xA;obHwFMHR4SNCFVJicvEzJDRDghaSUyWiY7LCB3PSNeJEgxdUkwgJChgZJjZFGidkdFU38qOzwygp&#xA;0+PzhJSktMTU5PRldYWVpbXF1eX1RlZmdoaWprbG1ub2R1dnd4eXp7fH1+f3OEhYaHiImKi4yNjo&#xA;+DlJWWl5iZmpucnZ6fkqOkpaanqKmqq6ytrq+v/aAAwDAQACEQMRAD8A9U4q7FXYq7FXYq7FXYq7&#xA;FXYq7FXYq7FXYq7FXYqsmnhgjMk0ixRjq7kKPvORlMRFk0GUYmRoC0Hq+sW+m6VJqLD1okC8AhHx&#xA;FiAtD0pv1yjU6qOLGcnMN2n00suQQ5F55qH5ha9ckiBktIz0EYBanuzV/Cmcrn7bzz+mojyekw9k&#xA;YY8/UUiuNW1K5Nbi7ml/13Zv1nNbPUZJ/VIn4ufDBCPKIHwQ3LKabaVYb26gNYJniPijFf1HLIZJ&#xA;R+kkMJY4y5gFN7Hzv5itCALozoP2Jx6lf9kfj/HM/D2tqIfxcXv3/a4WXszBP+Gvdt+xlmkfmPp1&#xA;yVi1CM2kh29UfHGfn+0v+e+bvS9u457ZBwn7HUajsacd4HiH2suililjWSJxJG4qrqQQR4gjN5GQ&#xA;kLG4dPKJBo812FDsVdirsVdirsVdirsVdirsVdirsVdirsVdirsVdirsVdirsVdirsVSW784aDaa&#xA;mNOnnKz1Cu3ElFY9AzfTmBk7SwwyeGTv9jnY+zs08fGBsxn805pA+nRcj6ZErFe3L4RXNT7QSNwH&#xA;Tf8AQ7TsKIqZ67JfaTSP+W16GYsI7xVQHsKxtQfSxzFxknQSvpP9TkZIga6PnH9bEuWaWncU7ljS&#xA;07ljS07ljS07ljS07ljS0m+geadS0aYGB/Utiay2zn4G8afyn3GZ2j1+TAfTvHucPV6GGcb/AFd7&#xA;1bRNdsNYsxc2jdNpYm+2jeDD9RzstLq4Z48Ufl3PJarSzwy4Zf2phmS4zsVdirsVdirsVdirsVdi&#xA;rsVdirsVdirsVdirsVUba9srrn9WuI5/TPGT03V+J8DxJochDLGf0kGu5nPFKH1Ai+9KLrznpFtr&#xA;iaPJ6n1hmVGkAHpq704qTWvfwzCydpYo5fCN39m7m4+zcksXiiq+1MtS1bTtMgE99OsEbHipNSSf&#xA;AAAk5lZ9RDELmaDi4NPPKagLKvbXNvdQJcW8glhkHJJF3BGWQmJgSibBa5wMCYyFEKmSYvEvNLf8&#xA;7HqX/MRJ/wASzg9f/fz/AKxe60I/cQ/qhkv5pzBrrTgPs+k7A/6xH9M2nb5uUPcXV9hRqM/el+ns&#xA;f+VeaoK7C7jIHz9PMbD/AIlP+uP0OTmH+Gw/qn9LFuWah21O5YrTuWK07litO5YrTuWK07litI/R&#xA;dbvNIvku7VtxtJGfsundWzJ0uplhnxR/tcfU6WOaHDL+x7NpGq2uqWEV7bGscg3U9VYdVPuM7jT5&#xA;45YCceReI1GCWKZhLmEZl7S7FXYq7FXYq7FXYq7FXYq7FXYq7FXYqk/mvXzoWlfXViEztIsSITxF&#xA;WBNT9C5ha/V+Bj4qvenN0Gk8fJw3W1tQ6v8ApHyo+prH6ZltpX9OtaMqsDv8xjHUeJpzOquJWWn8&#xA;PUDHd1IMN/Kd/wDcjfpXrCp4+NG6/jml7B+uXud32+PRE+aVeYJ1Hn+SShol3DUf6vAH9WYmrP8A&#xA;hhP9IfocvSR/wMD+if0p/wDm3IQmlp2Yzn7vT/rmw7fO0B7/ANDr/Z8bzPu/SitCvJYPyyllRjG8&#xA;UVwI3XqCZGofvbLdLkMdCSOgl95atVjEteAepj9wSf8AKu6nOtXUBkPpPbtIyE7F1kQBvnRjmH2F&#xA;M+LIXtw39oczt7GPCia34q+wsZ8xt/zsOqf8xc//ACcbNXrP76f9aX3u10Y/cw/qx+5kv5nmlzpf&#xA;/MN/EZtO2/qh/VdX2GPTP+sgdOkB/L/Vl7rdQn7yv9Mx8J/wOY/pD9DfmH+GQ/qn9LF+WaqnbU7l&#xA;jS07ljS07ljS07ljS07ljS07ljS07ljS0yz8vPMTafqwsZmpZ3xCbnZZeiN9P2T/AGZt+yNX4eTg&#xA;P0y+90/bGj8THxj6o/c9azr3j3Yq7FXYq7FXYq7FXYq7FXYq7FXYqlmoeZNJsNTtdNuZSl1d09JQ&#xA;pI+JuK8j2qwpmLl1mPHMQkfVJy8OiyZMZnEemLHfzYcDy/bLXc3akD2Ecn9c1/bv9yP636C7HsAf&#xA;vj/V/SF/lyWn5Yu4+Ix2t4SPk0pph0h/wH/Nl+lGsj/h4H9KH6GPflO4/Tl2nc2pI+QkT+ua/sI/&#xA;vZf1f0h2XtAP3UT/AEv0FJ/McyjztdSdQl2K/wCxYV/VmHqz/hJP9JzNHH/BYj+iyT83pBz0pO4E&#xA;5+/0x/DNl2+d4D3/AKHWezw2mf6v6V+kSV/Ku8rtwEqj6XB/jktOf8Al8fvY6iP+uEfh9yUflaa+&#xA;Zm/5hpP+JLmH2J/f/wCaf0Ob27/cf5w/Sx/zDIG1/U2HRrucj5GRs1+rN5p/1j97sdHGsMP6sfuZ&#xA;D+ZLk3WlMTUmxjJPuSc2HbH1Q/qB1vYo9M/65QumH/nQdZ/5ibf9YyvD/imT+tFtzj/DMf8AVkxj&#xA;lmsdrTuWK07litO5YrTuWK07litO5YrTuWK02HIIINCNwRitPdvLGq/pXQrS9JrI6cZv+MifC33k&#xA;VzutFn8XFGXXr73gNdp/CzSh06e5NMynEdirsVdirsVdirsVdirsVdirsVeXef5yvnvTm6+klvQf&#xA;KZm/jnM9qS/wqPlw/e9Z2RH/AASfnxfcm35uOBpFknc3BI+hD/XMrt0/u4/1v0OH7PD95I/0f0rP&#xA;LkwH5XXpAqVhu0P+y5f81YNJL/AZe6SdZH/XCPvikX5TyAeZJger2jgf8jIz/DMHsM/vj/VP3h2H&#xA;b4/cD+sPuKSeZpVXzXqL9Ql3ITT/ACX3zC1h/fyP9I/e5+hjengP6I+5lX5vsPrWmLXcRykj2JX+&#xA;mbTt76ofF1Hs6PTP3j9K3SpOX5U6iKU4Ssvz+OM/xwYD/gEvf+kJ1ArtGHu/QUr/ACwb/nak94ZK&#xA;/cMxuxv7/wCBcvtwf4OfeEg1w/7mtQ/5iZv+ThzA1P8AeS/rH73Y6Ufuo/1R9zIPzFmV7rSAOh06&#xA;FwfZi39Mz+1pXKH9QOt7GjUcn/DD+hC6Uf8AnSNd/wCM1p/xM5Xg/wAWye+LdqB/heL3SY3yzXOz&#xA;p3LFadyxWncsVp3LFadyxWncsVp3LFadyxWnqX5R3xk02+sya+hKsij2lWn6486bsLJcJR7j9/8A&#xA;Y8n7Q4qnGXeK+X9rPc3rzzsVdirsVdirsVdiqX61runaLbR3N+5jhklWFSAW+Jqnt2ABJyjUaiGI&#xA;XLldOTptLPPIxgNwLROoXsNjY3F7PX0beNpXC7miitB75ZlyCETI8g1YcRyTERzkaQvl7W4Nb0mH&#xA;UYUaJZeQMbUJVlJUio69Mq0uoGaAmNrbdZpTgyGBN0rWur6bdXlxZ29wkt1aEC4iU7qT+vwNOmTh&#xA;mhKRiDvHmwnp8kIiUhUZcnk35k3Cr5zdt/3SQ8voAbb785jtY/4R7qew7Fhel99si/OGSljpqU+1&#xA;LI1f9VQP45ndun0xHmXW+zg9cz5BD+XZyPys1Q0rxM6D5MF/5qyGlP8AgU/i2ayP+uEPgk35Vy08&#xA;1BaV528g+X2T/DMTsbbP8C5vbw/wf/OCQ+Zm/wCdk1b/AJjLj/k62YWrH76f9Y/e7DQ/3EP6kfuZ&#xA;Z+bkge+01xsHgZgPm1c2fbe8onydR7PCoTH9JT0uY/8AKptW47FLpVJ+bwH9TYMJ/wABn/W/4lln&#xA;j/rjD+r+iSX/AJZOf8X2wB2aOUH5emT/AAzH7I/vx8fucjtwf4MfePvSDVpS+q3rnq08pP0ucwc+&#xA;85e8ux04rHEf0R9yffmA3+k6N/2ybb9b5ndpjeH/AAuP6XX9kfTk/wCGy/QoaRLXyZ5gSn2ZLI1/&#xA;1nYfwyGD/F8g84/e2agf4ViPlP7gx3lmBTsqdyxpadyxpadyxpadyxpadyxpadyxpadyxpadyxpa&#xA;R+l6/qulCYafcNbm4AWVlAqQtSKEg069suw6ieK+A1bj59Jjy1xi6ULnU9QumLXNzLOT1Mjs/X5k&#xA;5CeScvqJLZDBCH0xA9wWwX13bkNbzyQkdDG7KfwIwRnKPIkJnijL6gCyPR/zK8yaeyrNL9egHWO4&#xA;3antJ9qvzrmwwdq5oczxDz/W6zU9i4MnIcB8v1PT/LXm7SdfhJtWMdygrLayUDr7j+ZfcZ0ek1sM&#xA;49PPueV1vZ+TTn1bx707zMcB2KsVvPMV3F+YVjoyyAWU1qzSR0G8pDuDXr0jFM109TIaqOP+Ex+3&#xA;f9TtsejidFLLXqEvs2/Wk/5xzcdM06H+eZ3/AOASn/G+Ynbh9ER5ud7Nx/eTPknnmu85eQrq6r/f&#xA;WsZrX/fvEf8AG2ZmsnemJ74/e6/s/HWsjHukfstA/lLN6nlZ1/31dSJ96o3/ABtlPYxvD7pH9Dke&#xA;0Ea1HviP0se/Li8EnnnVDX4bhJ2FPH1lYfhXMHsud6mXnf3uy7Zx1pIeRj/uSkf5lSFvOd+K1CiF&#xA;R/yJQ/rOYnau+ol8PuDn9iR/wWPx/wB0WRfm5cF7LQjXkJVlfl4/DF/zVmd21K4w+P6HWez0Knk8&#xA;q/3yG8uzlfyr1zepE7KB4BlhH8cr0p/wKfv/AFNusj/rhj/q/wDFJZ+V0hHm+3Uftxyg/wDAE/wz&#xA;H7I/vx7i5fbsf8GPvH3pBrzf7nNR/wCYmb/k4cwtQP3kv6x+92GkH7qH9Ufcyn81JA9/pTjYPYow&#xA;HzZjmx7XNygf6LqewY1CY/plbpc4H5V6xHTc3sdT7Ewn/jTBhP8AgUx/S/4lOeH+uGM/0D/vkF+W&#xA;khHnSwA6OJgfl6Ln+GVdlf4xH4/cW/tsf4LL4f7oJDqjf7k7v/jNJ/xM5hZR6z7y7HAP3cfcE586&#xA;SM0ujFiSf0TZ7n3QnMvX7mH/AAuLg9mDbJ/w2a3R3H+D/MQrvzsSB/z0fBg/uMn+b95TqR/hOL/P&#xA;+4Me5Zg07KncsaWncsaWncsaWncsaWncsaWncsaWncsaWncsaWncsaWncsaWncsaWncsaWleyv7q&#xA;xuo7u1kMNxCeUci9QcnjnKEhKJohry4o5ImMhYL3Xyf5ng8waStyKJdRUS7iH7L06j/JbqM7HRas&#xA;ZoX16vAdo6E6fJw/wnkUNoPmefUPNGtaVIEEViV+rcRRqD4ZOXj8WR0+qM804HlHl+lt1ehGPT48&#xA;g5z5/oYXrmo8Pzdt2r8MU9tBX2kRVP8AycOarPkrWj3gO80uG+zT5xkfkT+pX/Omf/SNKh/lSZyP&#xA;9YoP+Ncl24d4j3/oa/ZmG0z7v0o/zDe8/wAo7Vq7ywWkR67lGX/qnl2pneiHui4+jxV2lLyMj87/&#xA;AFqf5PXQXR9UU9IZVlP0oe/+wwdiyqEvIsvaPHeWHmK+39rFvyxuSPOloGNTOsyk+/ps/wDxrmv7&#xA;Kl+/Hnf3O37ch/gsvKvvQfn+UP5x1QjtKF/4FFH8Mq7RN55e9u7IjWmh7v0p7+Zs7SaZ5ZYkUa0L&#xA;0HSrJFX9WZfahuGP+r+p1/YcKyZv63/FKGgzhfyx8wilWE8VR7O0S5HTmtJk94/Q2auF6/F/VP6U&#xA;D+WUhHnXT1HRxMD8vQc/wynsv/GI/H7i39uR/wAFl8P90Eh1ZydUvCTUmeQkn/XOYeb6z7y7HTj9&#xA;3H+qPuZL+ZUxe90cj7LaXbuAe3JnzP7UNyh/UH6XV9iRqGT/AIZL9DWmzoPy01dD9o3sNPp4n/jU&#xA;4MR/wSY/pBOeB/PYz/QP6UL+XMpTzpppArVpF/4KFx/HK+zDWePx+4tvbMb0s/h94SC6b/SZv9dv&#xA;15hz5l2OMeke5OfN9wkkmkca/Bpdmhr4hMytYbMP6kXB7OhQyf8ADJ/e1pDf86t5g/6M/wDk8ccP&#xA;9zk/zfvXUD/CMX+f9yRcsw3YU7litO5YrTuWK07litO5YrTuWK07litO5YrTuWK07litO5YrTuWK&#xA;07litMq/LXXH03zPBEzUt7//AEaVe3Jv7s/PnQfSc2PZefw8wHSW36nUdt6XxdOT/FDf9f2Jl+Xu&#xA;qiT8xb167aibqg8SX9b/AI0zJ7Py/wCEk/zuL9bj9saetDEfzOH7q/Sx7zNqJHne/vAd4L5iCP8A&#xA;il+I7/5GYeqn+/lLul9zstDh/wAEjHvh94T785LgN5hs4lNVS0VtjUVeR/4AZl9sm8gH9H9Jdd7N&#xA;wrBI/wBL9AXate8vyh0lK/E12YmFabI0zfT0GOWf+BRH9L9aNPi/1yyf1b/3Kz8sr0QaZ5n/AMmy&#xA;9bpX+7ST/mrHsydQyf1f1su3MXFkw/16+dJB5EuPR836U3jOE/5GAp/xtmHoDWaPvdj2rC9NP+r9&#xA;26n51lL+bNWJNaXMi/8AAmn8MGt3zS96ezI1pof1Qm/nuYvpHlbsBpsYAr3AVSfppmRrzcMf9Rw+&#xA;yY1kz/8ADCp6LcEfl35jipsZrTf5yA/8aYMJ/wAGyDzj97LUw/w3EfKX3ftQ35cuR500yhoebj6D&#xA;E4OV9nf38fx0be2R/gs/h94SK9kZ7ydmNWaRyT7ljmJPeRdhijUR7mQ+frj1bjRWpQfoi04+NCGb&#xA;f/gszdebMP6kXW9kwqOT/hs2tPkX/lX2rrX4he2xI9iGp+rBj/xaX9YJzR/w3H/Uko/l9KE85aWS&#xA;K1lK/wDBIw/jkez9s8fez7Xjeln7v0pFPKHmkdejMSPkTXMSW5dhGNABNfMzfvNN/wC2da/8QzI1&#xA;XOP9SLh6EbT/AOGS+9dpEh/w5ryfslbUn5icAfrw4f7qf+b96NRH9/iP9b/cpJyzFc+ncsVp3LFa&#xA;dyxWncsVp3LFadyxWncsVp3LFadyxWncsVp3LFadyxWncsVpUt7h4LiKeM0eJ1dD7qajDE0QQxnA&#xA;SBB6sp/LewkHn63hJNbMzmQjb7CMn6zmy7Ox/wCEAd1up7ayj8mT/O4fvBSPzNA8fmfVIBu31yZV&#xA;6b1kNPvzF1MayyH9I/e5+hkDp4S/oD7mR/m9bm38y2y15A2UVDv+yzr3/wBXMztaNZR/VH6XWezs&#xA;+LAf65/Qt1K2ZPyn0mfs+oSNT2IlX9ceDJD/AASJ/pfrTgnfaMx/QH+9/Ws/L62abTfNDrWq6ZKg&#xA;ANKlgxH/ABDBoIXHJ/UKe2J8OTCP9sH4+1JPJsZl82aQg6i7hf8A4Bw38MxtHG80f6wc/tI1psh/&#xA;on7neck9LzZq6773czb/AOW5b+OOsjWaX9Yr2ab02P8Aqj7k38825h0nytIa/vNNTetfB/8AmZmR&#xA;roVDH/UcPsqfFkzjuyH9X6FuiRM35deY5ajis9pt32kA/wCN8GGP+DZD5xTqpf4dhHlP7v2If8uE&#xA;MvnbS1HZ3brT7MTt/DIdnC88fx0bO2jWkn7h94SG+BS9uEbqsrqaeIYjMWYqRdji3gD5BkXn+FoL&#xA;jREJr/uHs6H5Bl/41zM18aMP6kXWdkS4o5D/ALbNZYQg/l/q0xrtfW1PDZXH/G+DHH/B5H+kGWaX&#xA;+GwH9CX6P1KX5fKZPOelKDT96W/4FGb+GR0A/fR97Ltg1pZ+5IZlEczxg1CMVr8jTMQii7GJsApv&#xA;5ojaOTTOQI56bauOVdwU7V7Zk6mNcP8AUDhaA2J/8Ml967SFJ8ta/JXZVtVp/rT1/wCNccI/dT/z&#xA;fvRqT+/xD+t/uUj5Zi07CncsaWncsaWncsaWncsaWncsaWncsaWncsaWncsaWncsaWncsaWncsaW&#xA;ncsaWncsaWlW0ge5uobZN3nkWNaeLkKP15KEeIgd7DJIRiZHoLeseR9KMP5j+ZpivwwFwu3T6zL6&#xA;i0/2K50OixVqch7v0m3j+1dRxaHCO+v9iKYt5jsOX5s/VafDPfWrE/5MgjZj28TmDqMf+F13yH6H&#xA;baLN/rbxd0JfZaZfnfFx1TTJ/wDfkDp/wDg/8b5d2zH1RPk4vstK8cx5j7v2IvX7Ph+TWnVH936E&#xA;/wDyNYn/AJmZZnh/gcfgWnSZL7Un58Q+X9il+UFmJtF8wkivrokPj0jk7f7PI9lQuE/P9rP2jycO&#xA;XF5b/aP1MW/LOL1/O+mLSoVpHPenCJ2H4jMHs6N54/jo7ftyXDpJ/D7wt/MmP0fO+qJSlXR/+DiR&#xA;v449oRrPL8dE9iHi0kD5H7yyT82rX0NH8sbUMVu8LV6/CkVP45mdqQqGP3fqdX7PZOLLm85X9slP&#xA;yzbcvyl8wOduU5IqO0Yhb9eR00f8En7/ANTLXTrtLEP6P38SV/lLGJPOtq237qKZx9MZX/jbKeyx&#xA;++Hxcv2hNaSXmR97HvMaej5h1SKlPTu50oOg4yMMxNQKySHmfvdlojxYYHvjH7mXfm/bmDUdIqKE&#xA;WCRVOx/ds2xH+yzP7VjUo/1XTezk+KGT+uT81PSYSfyh1uatKX0e3sDANv8Ag8GKP+CTP9L9TLUS&#xA;/wBcsY/oH/ffqQH5WJ6nnnTjtRBMxr/xgcfrOVdmD9/H4/c5HbxrST+H+6DH9XX09WvY6ceE8q8R&#xA;2o5FMxMoqZ97stObxxP9EfcyD8woRBNoKgk10azqT4qGX+GZevjRh/Ui63seXEMv/Dp/oUtFT/nR&#xA;fMsu28tio8dpHJ/XkcI/cZD/AFWeqP8AheEeU/uDGOWYTtadyxWncsVp3LFadyxWncsVp3LFadyx&#xA;WncsVp3LFadyxWncsVp3LFadyxWmaflToT6n5njunWtrptJ5G7ep0iX58vi+jNj2Zg48t9I7/qdH&#xA;2/qxi05iPqnt8Ov6vi90WKJXeRUVXkoZHAALUFBU96DOnoPn5kSK7nm+rady/OjTGp8MluLlj/xj&#xA;jlUfjGM1GXH/AIZH3X971GnzV2VPylXzMf1qH56RVtNIn/kknT/g1Q/8aZHtkbRPvbPZSXqyDyH6&#xA;f1p55usSn5VSWtKG3s7UU8PRMZ7/AOrmTqof4LXdEfZTgdnZb7REu+cvttBfknDx8r3Up6yXjgfJ&#xA;Y4/4k5X2RH92T/S/U3e1Er1ER3Q/SWIflPZ8fPjoRvaRTnftQiPt/rZgdmQ/f+63d+0GT/A7/nGP&#xA;61D817cnz5Mq7NcJAencoE+n7OR7Sj+/PnTP2fn/AIGP6Jl99ss/O+BV0XTJFAAjnaMeIDR12/4D&#xA;M7tiPoj73T+y0v3sx3x/St8pW1fye1M7D1Yb2Xbf7Ckf8aYNLH/BJe6Se0Z/65w8jAfj5sf/ACUj&#xA;5+a7h96R2chr2qZIxT9eYvZA/en+r+p2XtOa04HfMfcWP+bravnjU7fjT1b5/hHU+o9fx5Zi6qP7&#xA;6Q/pOx7On/gkJd0B9gZj+ekfG80iWn245lr2PFkP/G2Z/bA3ife6T2UPpyDzH6WtGgr+S2qGnLnK&#xA;0lD/AJEke/0cMcUf8Dl+O5Opn/rrD3V9h/Wk35PJz85xtQH07eVq+GwX/jbMfsofvvgXO9pDWlPn&#xA;IMc80KI/M2rxg1CXtwtflKwzE1IrJL+sfvdnoDenxn+hH7gyz83YDDcaHUiosEjKjoOB/tzO7UjR&#xA;h/VdP7Oy4o5P66C0iOn5X69Nt8V5bJXv8JU/8bZXiH+DTP8ASDfqD/rhiH9CX6WGcs17vKdyxWnc&#xA;sVp3LFadyxWncsVp3LFadyxWncsVp3LFadyxWncsVp3LFaR2jaRqGsahFYWERluJTsOiqo6sx7KO&#xA;5yzFhlklwx5uPqdRDBAzmaiH0N5R8sWnlzRo7CE85T8dzPShklI3PyHQDwzq9Lpxihwj4vmvaOul&#xA;qcpmeXQdwTrMhwVJrO0a6S7aFDdIhjScqOYRiCVDdaEjI8Iu63ZjJIR4bPDzroxv8wvKV15m0q2t&#xA;LWVIZYblJWaStPT4sj0oOo5VGYmu0xzRAHe7TsftGOlyGUhYMa+Ka+ZdMk1Dy5qGnW6j1Z7d44FO&#xA;w58fgHtvTL9Rj4sZiOocPQ5xjzwnLkJAn9KWflxod9o3lS2tL5PSumZ5ZIqglebbA078aZTocJx4&#xA;gDzcvtrVQz6gygbjsEh8h+UtX0rzvrt9d2/pWj+pHay1HF1lmEo4gf5Kivh0zG0emlDNORG37XYd&#xA;rdo4s2kxQibltY7qFIL8wfLOr3/5g6Pc2tnNPZusCzzopMaenMxfmw2WiEHfK9bp5SzxIBI2+9v7&#xA;H12LHoskZSAl6qHU3Hb37p3+b+k32o+VYxZQPcS290kzRxKXfhwdCQBvtzFaZkdp4pTxbC6Lg+zm&#xA;ohi1B4yAJRI394P6EV5S0S9g/LiHSp4mhvJbW4UxOOLK07SMoYHofjHXJ6bCRpxE86P2tPaOqhLX&#xA;HIDcRKP2V+pi/wCTflzWdO1LUbrUbKa0X0lhjM6NGWJbkeIanIfD1zD7LwThKRkCHbe0utxZMcIw&#xA;kJb3tulnmPyjrk/5n+pFYTPZXF1DP9ZVWMXpjgZCZOgoa1/2spz6WZ1NgbEhytF2jhj2fRkOIRIr&#xA;re9bMg/OfQdV1K00y4sLWW6Nq8qypCpkYCUJQ8VBNP3eZXauGUxExF1brvZnV48UpxnIR4q57cr/&#xA;AFozRfLWpr+VEmkSQsmoz287C3aisHd2eNTXoSKdcsxaeX5bgr1UWjU67Ge0RlB9AlHf4AFjn5Oe&#xA;W9atNfu76+sprWCO3aFWnRoyZWdDRQwFaKrVzE7L084zMpAgU7T2k1uKeGMISEiZXsb2opF5v8l+&#xA;ZZ/Ot9HbafLJHe3LSwTojGErK3Lk0gHEUr8VcxtVpMhzGhzLn9ndp4I6SJlMDhjRF77eX3Mv/OPy&#xA;zq1/FplzplpJdJaiSGWKFTJIobiUPEVYj4T8sz+1NPKQiYi6dN7N67HjM45JCPFR32HW0Dpvk3X1&#xA;/KnUbJrRl1G5uRdx2pFJTGnpjiVO4aiMQvXKseln+WMa9RN18m/P2lhPaMJ8XojHhvpe/wCsbvOT&#xA;5d8xA0Ol3YI6j0Jf+ac1XgZP5p+T0/5zB/Ph/pg7/D3mH/q13f8AyIl/5px8Cf8ANPyX85g/nw/0&#xA;wd/h7zD/ANWu7/5ES/8ANOPgT/mn5L+cwfz4f6YO/wAPeYf+rXd/8iJf+acfAn/NPyX85g/nw/0w&#xA;d/h7zD/1a7v/AJES/wDNOPgT/mn5L+cwfz4f6YO/w95h/wCrXd/8iJf+acfAn/NPyX85g/nw/wBM&#xA;Hf4e8w/9Wu7/AOREv/NOPgT/AJp+S/nMH8+H+mDv8PeYf+rXd/8AIiX/AJpx8Cf80/JfzmD+fD/T&#xA;B3+HvMP/AFa7v/kRL/zTj4E/5p+S/nMH8+H+mDv8PeYf+rXd/wDIiX/mnHwJ/wA0/JfzmD+fD/TB&#xA;3+HvMP8A1a7v/kRL/wA04+BP+afkv5zB/Ph/pgq2/lTzRcPwh0m8Y9z6EgAr4kgAZKOmyHlE/JhP&#xA;tDTxFnJD/TBlehfk15jvXV9TdNNt+rKSJZiPZVPEfS30Zm4eyskvq9IdPq/aXBDbHcz8h+Pg9a8t&#xA;+VNF8u2ht9Oh4s9PWuH+KWQj+ZtvuG2bvBpoYhUQ8dre0MuplxTPuHQJvl7hOxV2KuxV2KuxV2Ku&#xA;xV2KuxV2KuxV2KuxV2KuxV2KuxV2KuxV2KuxV2KuxV2KuxV2KuxV2KuxV2KuxV2KuxVzMFBZjRRu&#xA;SegGKgPENV/M7zp5i1iSy8qpJFbLy9KOCMPM8Y29SRmDcfopT3zQ5NblySrHye90/Yel02IT1FGX&#xA;mdr7h3rLHz7+Z2g6rb2erW014Z2VY7O4i4vJU0/dSItS3b9r5YIavUY5ASF+RZZeyNBqMZliIjX8&#xA;QOw94P7HsOra5a6Rocur6grQxQRCSSE8S4ZqARihKlix49aZusmUQhxF4rT6WWbKMUNyTz/T7urx&#xA;h/zA/MrzPezLoaSxwJv9Xs4wwRT9nnKRWpp4ivYZpDq8+U+j7HuB2RoNLAeNRPfI8/cEd5c/NfzL&#xA;pOsLpnmxWaAsEmeWP0p4a9GIULyXx2rTocsw6/JCXDk/aHH1vs/gzYvE03PpRsH9RehfmRreo6P5&#xA;RudR0yf0bpHiEcoVH2eQA7OGXcHwzY63LKGMyid3m+xdLDNqRDILjvty6eSH/KvzBq2u+WXvdUn+&#xA;sXIuZIxJwRPhVVIFEVR38MjoMssmO5Gzbb2/o8en1HBjHDHhB6nv70p/ODzd5g8vfon9EXX1b619&#xA;Y9f93HJy9P0uP94r0pzPTKe0dRPHw8Jq7/Q5ns52dh1PieLHi4eGtyOfF3Edyf3Gtakn5bDWVmpq&#xA;R0pLr1+K/wB80Actxpw+0elKZkHJLwOL+Lhv7HXQ02M67wq9HimNeXFXvYN+XH5r6rd62NN8xXKz&#xA;R3lEtbgpHHwl7IfTVAQ/TfvTMDRa+RnwzPN3/bXs/jhi8TBGjHmLJsfHuZX+bPmLWNA8uW15pNx9&#xA;WuJLxIXfgj1QxSMRSRWHVBmZ2hmljgDE0b/W6f2e0WLUZzHIOKIgT1G9juR3kTWtS1TyLaapfTet&#xA;fSpcF5uKrUxzSKvwqFXYKO2T0uSU8Ikee/3tHa2mx4tXLHAVAcO3vAeS6Z+Yf5q6pK8OnXUt3Ki8&#xA;3SG1t3IWtKkCLxOaiGs1EzUTfwH6nsc/Y3Z2IXkiIjzlL/ikws/zb886JfLB5htvXXrJFPD9Wm41&#xA;6oVVF+9Tlke0M0DUx9lOPk9ntJnheA15g8Q+PP73s2k6pZarptvqNk/qWtygeNu/gQfAg7EeObvH&#xA;MTiJDkXhtRglhmYTFSi8o84fmxrd1rDaP5TBojmIXEcYllmkBofTUhhx8Nqnrmo1OvmZcOP+17Ds&#xA;32fxQxeLqffV0APPzSdvPH5peWriKTVxMYJDUQ3kQ4P4gOACD8myj81qMR9X2uaOy+z9VEjFVjrE&#xA;8vh+x6P5k833bfltN5k0rnZXLpC8XqopZC86RuOLqVYUJoab9c2efUHwOOOx2+95jRdnRGvGDJUo&#xA;2eR5+kkclv5TeYtY1/y5c3mrXH1m4jvHhR+CJRBFGwFI1UdXOPZ+aWSBMjZv9SfaHRYtPnEcY4Ym&#xA;APU72e9mjukaNI7BUQFmY7AAbkk5nEujAJNB4nrv5q+a9b1dtP8AKkbxW/IrD6MYknlA/bPINwHf&#xA;Ybdzmiy6/Jklw4+X2vd6TsDTYMfHqTZ62aiPLzQsH5ifmN5Z1CKPXklmgbc213GFLpXcxygA1+kj&#xA;2yA1mfFL1/a3S7G0OqgThoHvifvD2OLW7fUPLbaxp0lYpbZ5oHoKghTsRuKqwoR45uxlEocUe54i&#xA;Wlljz+FMbiQBYR+UPnHzF5hudTTV7v6ytukRhHpxR8S5YH+7VK9O+YHZ2onkJ4jdO+9o+zcGmjA4&#xA;o8PFd7k93eWSfmTrWpaN5SutQ02b0LuN4gknFXoGkCnZwy9D4Zk63JKGMmPN1nYmmx59TGGQXE39&#xA;3khvyr8watrvll73VJ/rFyLmSMScET4VVSBRFUd/DI6DLLJjuRs229v6PHp9RwYxwx4Qep7+95jb&#xA;/mJ+aGoahNZ6bdyXMqFyIYra3dgitStBFXbNUNZqJSqJv4D9T1c+xuz8cBLJERHeZS/4pFxfmr+Y&#xA;ehXqR6/bGVW3aC6gFs7LXcoyKg+nicmNfnxn1j5immXYGi1ECcJrzjLiHxsn9D2PQNcsdc0m31Ox&#xA;YmCcV4t9pWBoysPEHN3iyjJESDxGr0s9PkOOfMJhljjOxVbIiyRsjfZcFT8iKYkJBo2+ep9F89/l&#xA;/rct3YxSGEckW8SP1YJYSagPsQvQbGhHbOdOLLp5WPm+lQ1Oj7RxCMyL/m3RB8mR6H+eiy3MC+Yd&#xA;NjKo1VvLYGsZI48vTcsehNeLdO2ZOLtOz6x8Q6zVeylRJwTPul1+I/Um/wCeGoh/J1g1tIHtry6j&#xA;cOpqHj9J3X6Dscu7TleMVyJcH2Ww1qpcQ9UYn4GwE5/J+xt7byJYyxAepdtLNO4/ab1GQV+SoBl3&#xA;Z8AMQ83C9o8spayQPKNAfK/0sR/P+ygV9HvlUCdxNDIwG7KvBlr/AKpZvvzD7VgPSXc+yGUkZIdN&#xA;j96Y+bLmSf8AJGzmlJLtb2QYnqeLItfpplmc3pR7g43Z8BHtaQH86f6Uf+Rpr5Lf/mMl/wCIJlnZ&#xA;n918XG9qv8aH9QfpSH/nIM0/QH/R3/zIyjtb+H4/odj7H/5X/M/3zKrs/wDIHFP/AGo4v+oZcypf&#xA;4t/mfodRj/41P+Sx/wB08SsPLV5e+WLzXbTkx02dUuYx1ETLUSCn8rdfbftmkjgMoGY6F7zLrow1&#xA;EcMv447e/u+LJ/M/nYeY/wAtLOK6euq2F/DHdV6yL6E3CX/ZUo3v8xmVn1PiYAD9Ql+guq0PZf5b&#xA;XyMf7ucDXl6o2P1eT0b8rz/yDGx/4x3X/URLmx0X9wPj95eY7d/40Je+P+5iwP8AIQ18x6h/zB/8&#xA;zUzA7K+s+56H2t/uIf1/0Fm350adaXHkqe7lVfrFjJE9vIacv3kixsoPgQ1SPb2zO7SgDivqHQ+z&#xA;OaUdWIj6ZA38BaS/lpqV1H+U+uTI5D2H136uf5eNssop/s2JyjRTI08vK/uc/tzBE9pYwf4+C/8A&#xA;TV9yV/kFY202p6rfOAbi1iijhrQkCYuXI/5FgfTlXZUBxSPc5ftdllHHCA5SJJ+Ffrey3Fpa3IRb&#xA;iFJljYSRiRQ4V16MKg0Ir1zdGIPN4eGSUfpJF9zFPzc2/LzVv+jf/qJizE1/9zL4feHcezv+Ow/z&#xA;v9zJJ/yGNfKF5/20JP8AkzDlPZf92f636A5vtZ/jMf8AhY/3UmTfmLcy2/kjWZIq8zbsnw9aSEI3&#xA;4NmTrDWKXudV2NAS1eMH+d927BvyBs4Pq2rXxWtxzjgDHqEALED5mlflmD2VAVI9Xf8AtdkPFjh0&#xA;olkH50WVvP5HnuJAPVs5YZIGPWruI2A/2L5kdowBxE9zrfZnLKOrERykCD8r/Qlf5S3Us35aamjm&#xA;q28t1HGPBTCkn/EnOVaA3gPx+5zPaHGI6+BH8Qif9kR+hKP+cfzW81r/AIxwf8SfKeyucvg5ntf9&#xA;OP3y/QzD84zTyDe/8ZIP+Tq5mdo/3J+DpfZr/HI+6X3IP8jTXyW//MZL/wAQTIdmf3Xxbvar/Gh/&#xA;UH6WE/k0a/mBdf8AMPcf8nEzC7O/vj7i772lH+BR/rR+4vSfzX0+1vPI2oPOo52oWeBz1V1YDb/W&#xA;UlfpzZa+AliN9Hl/Z/NKGrgB/Fsfx9rHvyEuJH0DUoCaxx3QZB4F4wD/AMRGY/ZR9BHm7L2tgBmg&#xA;epj+l6hm0eTdiqleXDW9pNcLC9w0SM4giALuVFeKgkbntgkaFs8cOKQjYFnmeQeSaR+fare3Meua&#xA;c8duZD9X+rUMkajbhIrlORHdgR8s1WPtPc8Qey1Psl6AcM7Nb3yPmK/HmxL8y/N3l3zNfWj6Jp7w&#xA;zpyE9yyIkkxenFeKFuVKdTvvmJrM0MhHCHc9h9nZ9LCQyzsdBdgfN6N5i8malfflPY6ZwZ9U06CC&#xA;4SD9ovGhDxfMI7ADxGbDLpzLTiP8QeY0XaePH2lLJ/k5ki/InY/MBh/5cfmxaeXNLbR9Xt5pLaJ2&#xA;e2lgCs6czVkZXKbcqmte+Ymk1oxx4ZDZ3fbXs9LU5PFxECRG9/f1Szzh5mv/AMw/M1jZaVausKVh&#xA;soX3eshBklk41Ciiiu+wGV6jKdRMCI9zl9m6GHZuCU8khfOR93ID8dXr/mfykbn8vZvLtkOctvax&#xA;Ja1oCz23Fl+l+FPpzbZsF4eAd33PFaDtHg1ozz5GRv8Azr+63ln5afmXB5TiutJ1e3ma1aUyKYwP&#xA;UiloEdWRyux4jvsfnmr0erGIGMhs9d252GdYY5MRHFVb8iOm6C88ebLnz95hsLPSrWQRRkw2UL09&#xA;RnlILu1KhdlHfYCtchqcxzzAiPc39ldnx7OwSlkkLO8j025B7F5psU0/8tr+wQ8ks9MaBW8RFFwB&#xA;/DNvmjw4SO6LxOgynJrozP8AFkv5liH5BxxzaFrEUqh45J0V0YVDK0ZBBB7HMTswemTuva4mObGR&#xA;zr9Lz/8AMfydL5W154YgTpl3WWxkNfs1+KMn+aMmnyoe+YGr0/hTr+E8npOxe0hq8Nn+8jtL9fxe&#xA;w/laf+QX2H/GO7/6iJc2+i/uB8fvLxPb3/GhL3x/3MXkf5ZedNN8q6rd3l/FNMk9uYY1gCk8uat8&#xA;XNkoPhzU6POMUiT3PZ9udmZNXjjGBAqV7+73FMvPH5kX/nU2+iaTYyRWzyhlhrzmmkFQoIXYAV6b&#xA;+OW6nVnNUYjZxeyuxIaG8uWQMq59AHq/kzyaukeShod5vLdxyG/4mo5zrxZQf8laLX2zaafT8GLh&#xA;PXm8d2n2l42r8aPKJHD/AJv4t435d1vVPy4833Vvf25kjAMF3CDTnHXkksZO3uPY02zUYcktPkII&#xA;e41ulx9p6aMoGjzB7j1BZZ5k/PlHihTy5ayJLzDTS3qrTiP2FRGb7Xc8h7eOZWbtP+YPm6fReyRB&#xA;JzyFdOH77IZB591C/wBQ/KG7vdQtPqN3PHbPLaklilbqOlagEVG9D06ZkaqRlpySKO33us7Iwwx9&#xA;pxhCXHEGW/8Amlgv5bfmhpHlXQ59PvLW4nllunuA8PDiFaONKfEymtUzB0esjijRB5vQ9t9g5dXm&#xA;E4yiAI1vfeT+l6BpPnLSPzD07V9Etbea2ZrVgZJ+FAZKqpHFm+y2+Z8NRHUCUQK2eb1HZmXs2ePL&#xA;IiXq6eTzLyR5vvPIGu31hq1pIYJCqXkK0EqPHXg6ciAwIbxFRQ1zW6bOcEiJB6vtTs2PaOGM8chY&#xA;5Hob6H8bI78yfzSt/M9lDpGkW80dqZFkmeYKJJGGyIqKX2qa9anJ6zWDKOGI2cfsTsGWkmcuUgyr&#xA;auQ8+j0/8vvK0mkeSYdLvQUuLpXkvEHVWnH2fmq0B982WlwcGLhPV5PtjXjNqzkh9MaA+H7Xj3lb&#xA;Xrz8u/OF3b6lbtLEK293GlAxQEMksdaA+Iqdwc1ODIdPkIIe21+kj2lpYyxmjzH6QU0/Mr81LLzL&#xA;psWkaTbzJbtIslxLMFVmK/ZRVUvtU1rlus1oyR4YjZxOxOwJ6WZy5COKqFfe9Q/LLQbnRfJtla3S&#xA;GO7l5XE8Z2KmU1Cn3C0r75stHiMMYB5vJ9u6uOfVSlHeI2Hw/a8U8iebNP8ALHmy61K+jllhMc0I&#xA;SAKzcmcEfaZBT4fHNNpswxZDIvd9rdnz1WmjjgQDYO/u+Kcee/zWufNVmuiaRZSQ21w6+qGPOaYg&#xA;1SMIlaDlQ9yf13anWnKOGI2cLsn2fjpJeLlkDID4DvNl6d+V/lSfy55XSC7HG/u3NzdJ/IWACx1/&#xA;yVUV965stFgOOFHmXlO3u0BqdQTH6Iih5+f46MuzLdK7FXYqwHzp/wAqg+ut/iT6r9f/AN2+l6vr&#xA;1/4s+q/HX/WzB1H5e/XV/juei7M/lPg/ccXB51Xw4tvkpeTv+VNfpGP/AA99W/SPL9x63rery/4q&#xA;+tb1/wBXBg/L36Kv8d7PtL+VOA+PxcHWuGvjwfpeh5nvNPOvOP8Aypj9KP8A4g+rfpGv7/0PX9Tl&#xA;39X6r+1/rb5r8/5fi9dX8f0PTdm/yp4Y8Hi4Ol8NfDj/AEJz5F/5V16Un+Evq3Kn77hy+sce3P1v&#xA;33H57ZdpvB/ydfj7XC7W/PWPzPF5fzfs9LLMynTPP/Ov/Kn/ANIN/iT6t+kK/vfS9b1q0/3Z9V+L&#xA;/gswNR+Xv11f47no+zP5T4P3HFwefDXw4v0I7yH/AMqy5yf4T+rfWOP7z+8+scK7/wB/+941+jLN&#xA;N4P+Tr9P2tHa35+h+Z4uH4cP+x2tkuufov8AQ95+lqfo30n+ucuVPSp8VePxdPDMjJw8J4uTq9L4&#xA;nix8P+8vb3pN5G/wP9Uuv8Jen9X9RfrPp+rTnTavq79PDKdN4VHw3N7V/N8UfzN8VbXXL4Kvnb/B&#xA;n6Mi/wAV+l9S9Uej6vOvq8T9n0/i+zXDqPD4f3nJj2X+a8Q/lr4q3quXx2RPlv8Aw3/huD9B8f0H&#xA;xl9Hhz48ebep9v4/t8slh4OD0/S1a3x/HPjf3u18u4Vy25UwD/rH/wD5d/8Ap7zB/wAF8vtei/15&#xA;/pf7BmPlD/lX9G/wx9R9Sn7z6vx9fj/l1/e0+eZeDwv4KdJ2j+d/5EcdefL9TJsyXVMY88f4B+rR&#xA;/wCLPq3Gh9D1a+tT9r0/T/e08eOY2o8Kv3lO27K/OcR/LcXnXL43t82OeVf+VI/pOP8AQv1b6/yH&#xA;ofWPrFefbh9b25eFN8x8P5bi9NX8f0uz7Q/lbwz4vFwda4ft4OjNPNX+H/0Ddf4h4/of939a58+P&#xA;94vCvp/F/ecemZmbg4Tx/S6LQeN40fA/vN65dxvn5W8+/wCsf/8Al3/6e8wP8F8vtek/15/pf7Bk&#xA;3kb/AJVv9buv8Jel9Y9NfrPp+tXhXavq7dfDMnTeDZ8N1Xav57hj+Zvhva+Hn8G/PX/Ktfg/xZ9W&#xA;9an7uvP6xx9vQ/e8fwx1Pg/5Sv0/YvZP5/f8txV8OH/ZelL/ACX/AMqe/SK/4b+rfpGv7r1fW9at&#xA;P91fWvirT+TK9P8Al79FX+O9ye0/5T4P3/Fwda4a+PD+l6Bme82xPz3/AMq79KL/ABb9W5UPoc+f&#xA;1jj34ej++418NsxdT4P+Ur8fa7jsn89Z/LcXn/N+N+lJfKH/ACpb9Jx/oH6t+kOX7j1/X58u3p/W&#xA;v2v9XfKcH5bi9FX8f0uf2j/KvhnxuLg61w/bwfpejZsHmHlc3/Kg/Vf1Pq/qcjz/AN6/tV3zWH8r&#xA;5fa9fH+WaFcVf5jKPJ//ACrX1f8AnWfqP1rjv6VPrHGm/wBv97TxzJweD/BV/a6ntL8/X+EcfD5/&#xA;T9mzLMynTOxV/9k=</xmpGImg:image>
               </rdf:li>
            </rdf:Alt>
         </xmp:Thumbnails>
      </rdf:Description>
      <rdf:Description rdf:about=""
            xmlns:xmpMM="http://ns.adobe.com/xap/1.0/mm/"
            xmlns:stRef="http://ns.adobe.com/xap/1.0/sType/ResourceRef#"
            xmlns:stEvt="http://ns.adobe.com/xap/1.0/sType/ResourceEvent#">
         <xmpMM:DocumentID>xmp.did:01801174072068118083A5C5758A9361</xmpMM:DocumentID>
         <xmpMM:InstanceID>xmp.iid:01801174072068118083A5C5758A9361</xmpMM:InstanceID>
         <xmpMM:DerivedFrom rdf:parseType="Resource">
            <stRef:instanceID>uuid:981E3EA93164DF118E6D90B556E55533</stRef:instanceID>
            <stRef:documentID>uuid:971E3EA93164DF118E6D90B556E55533</stRef:documentID>
            <stRef:originalDocumentID>uuid:971E3EA93164DF118E6D90B556E55533</stRef:originalDocumentID>
         </xmpMM:DerivedFrom>
         <xmpMM:OriginalDocumentID>uuid:971E3EA93164DF118E6D90B556E55533</xmpMM:OriginalDocumentID>
         <xmpMM:History>
            <rdf:Seq>
               <rdf:li rdf:parseType="Resource">
                  <stEvt:action>saved</stEvt:action>
                  <stEvt:instanceID>xmp.iid:01801174072068118083A5C5758A9361</stEvt:instanceID>
                  <stEvt:when>2015-08-26T20:00:22-04:00</stEvt:when>
                  <stEvt:softwareAgent>Adobe Illustrator CS5</stEvt:softwareAgent>
                  <stEvt:changed>/</stEvt:changed>
               </rdf:li>
            </rdf:Seq>
         </xmpMM:History>
      </rdf:Description>
      <rdf:Description rdf:about=""
            xmlns:xmpTPg="http://ns.adobe.com/xap/1.0/t/pg/"
            xmlns:stDim="http://ns.adobe.com/xap/1.0/sType/Dimensions#"
            xmlns:xmpG="http://ns.adobe.com/xap/1.0/g/">
         <xmpTPg:MaxPageSize rdf:parseType="Resource">
            <stDim:w>30.984375</stDim:w>
            <stDim:h>20.005859</stDim:h>
            <stDim:unit>Pixels</stDim:unit>
         </xmpTPg:MaxPageSize>
         <xmpTPg:NPages>1</xmpTPg:NPages>
         <xmpTPg:HasVisibleTransparency>False</xmpTPg:HasVisibleTransparency>
         <xmpTPg:HasVisibleOverprint>False</xmpTPg:HasVisibleOverprint>
         <xmpTPg:SwatchGroups>
            <rdf:Seq>
               <rdf:li rdf:parseType="Resource">
                  <xmpG:groupName>Default Swatch Group</xmpG:groupName>
                  <xmpG:groupType>0</xmpG:groupType>
               </rdf:li>
            </rdf:Seq>
         </xmpTPg:SwatchGroups>
      </rdf:Description>
   </rdf:RDF>
</x:xmpmeta>
                                                                                                    
                                                                                                    
                                                                                                    
                                                                                                    
                                                                                                    
                                                                                                    
                                                                                                    
                                                                                                    
                                                                                                    
                                                                                                    
                                                                                                    
                                                                                                    
                                                                                                    
                                                                                                    
                                                                                                    
                                                                                                    
                                                                                                    
                                                                                                    
                                                                                                    
                                                                                                    
                           
<?xpacket end="w"?>
	</metadata>
<linearGradient id="SVGID_1_" gradientUnits="userSpaceOnUse" x1="902.8752" y1="-751.2729" x2="902.8752" y2="-804.2808" gradientTransform="matrix(0.3332 0 0 -0.3332 -285.3689 -249.1726)">
	<stop  offset="0" style="stop-color:#F79810"/>
	<stop  offset="1" style="stop-color:#F8310E"/>
</linearGradient>
<path fill="url(#SVGID_1_)" d="M0.351,9.22c-0.064,0-0.116,0.05-0.124,0.121L0,11.062l0.227,1.691
	c0.008,0.072,0.06,0.121,0.124,0.121c0.062,0,0.113-0.049,0.124-0.12l0,0l0,0l0,0l0.269-1.692L0.475,9.34
	C0.465,9.27,0.413,9.22,0.351,9.22z M1.625,8.279C1.615,8.205,1.562,8.154,1.496,8.154s-0.12,0.053-0.129,0.125
	c0,0-0.305,2.782-0.305,2.782l0.305,2.722c0.009,0.073,0.062,0.126,0.129,0.126c0.064,0,0.118-0.052,0.129-0.125l0.346-2.723
	L1.625,8.279z M6.425,5.712c-0.125,0-0.229,0.102-0.234,0.232l-0.242,5.12l0.242,3.309c0.006,0.129,0.109,0.231,0.234,0.231
	c0.124,0,0.228-0.103,0.234-0.232v0.001l0.274-3.309l-0.274-5.12C6.653,5.814,6.549,5.712,6.425,5.712z M3.941,7.492
	c-0.096,0-0.174,0.077-0.182,0.179l-0.273,3.393l0.273,3.281c0.007,0.102,0.086,0.179,0.182,0.179c0.095,0,0.173-0.077,0.182-0.179
	l0.311-3.281L4.122,7.67C4.114,7.568,4.035,7.492,3.941,7.492z M8.949,14.604c0.155,0,0.281-0.125,0.287-0.285l0.238-3.254
	L9.237,4.25C9.231,4.09,9.105,3.965,8.949,3.965c-0.156,0-0.282,0.125-0.287,0.285c0,0-0.211,6.815-0.211,6.815l0.211,3.254
	C8.667,14.479,8.793,14.604,8.949,14.604z M14.117,14.619c0.214,0,0.39-0.176,0.394-0.392v0.002v-0.002l0.166-3.16l-0.166-7.872
	c-0.004-0.215-0.18-0.392-0.394-0.392c-0.213,0-0.39,0.176-0.393,0.392l-0.148,7.869c0,0.005,0.148,3.164,0.148,3.164
	C13.728,14.443,13.905,14.619,14.117,14.619z M11.514,14.606c0.186,0,0.335-0.148,0.34-0.338v0.002l0.202-3.204l-0.202-6.865
	c-0.005-0.19-0.154-0.338-0.34-0.338c-0.188,0-0.337,0.148-0.341,0.338l-0.18,6.866l0.18,3.203
	C11.177,14.458,11.327,14.606,11.514,14.606z M5.178,14.577c0.11,0,0.199-0.088,0.208-0.205l0.293-3.309L5.386,7.915
	C5.378,7.799,5.288,7.711,5.178,7.711c-0.112,0-0.201,0.088-0.208,0.206l-0.258,3.147l0.258,3.309
	C4.977,14.489,5.066,14.577,5.178,14.577z M2.713,14.396c0.081,0,0.146-0.063,0.155-0.151l0.329-3.182L2.869,7.761
	C2.86,7.672,2.794,7.609,2.713,7.609S2.567,7.673,2.558,7.761c0,0-0.289,3.302-0.289,3.302l0.289,3.181
	C2.567,14.331,2.631,14.396,2.713,14.396z M12.811,4.087c-0.201,0-0.363,0.16-0.367,0.366l-0.164,6.615l0.164,3.184
	c0.004,0.202,0.165,0.362,0.367,0.362c0.201,0,0.362-0.16,0.366-0.365v0.003l0.185-3.184l-0.185-6.616
	C13.173,4.247,13.012,4.087,12.811,4.087z M7.683,14.61c0.139,0,0.254-0.113,0.261-0.258l0.256-3.287L7.944,4.775
	C7.937,4.629,7.822,4.516,7.683,4.516c-0.141,0-0.256,0.114-0.262,0.259l-0.227,6.291l0.227,3.287
	C7.427,14.497,7.542,14.61,7.683,14.61z M10.54,14.3L10.54,14.3l0.22-3.233l-0.22-7.046c-0.005-0.175-0.144-0.312-0.313-0.312
	c-0.171,0-0.31,0.137-0.314,0.312l-0.194,7.045L9.913,14.3c0.005,0.174,0.143,0.311,0.313,0.311S10.534,14.474,10.54,14.3
	L10.54,14.3z M27.174,7.005c-0.522,0-1.021,0.105-1.474,0.296c-0.304-3.435-3.184-6.129-6.697-6.129
	c-0.86,0-1.698,0.169-2.438,0.456c-0.287,0.111-0.364,0.226-0.366,0.448v12.096c0.003,0.234,0.184,0.428,0.411,0.451
	c0.01,0.001,10.496,0.006,10.564,0.006c2.104,0,3.811-1.706,3.811-3.811C30.985,8.712,29.279,7.005,27.174,7.005z M15.419,2.064
	c-0.229,0-0.417,0.188-0.42,0.419l-0.173,8.586l0.173,3.115c0.003,0.229,0.19,0.416,0.42,0.416c0.229,0,0.416-0.188,0.419-0.419
	v0.004l0.188-3.116l-0.188-8.586C15.835,2.252,15.648,2.064,15.419,2.064z M3.077,17.052c-0.45-0.106-0.572-0.163-0.572-0.342
	c0-0.126,0.102-0.256,0.406-0.256c0.26,0,0.463,0.105,0.646,0.292l0.41-0.397c-0.268-0.281-0.593-0.447-1.035-0.447
	c-0.562,0-1.017,0.316-1.017,0.833c0,0.561,0.366,0.728,0.891,0.849c0.536,0.122,0.634,0.203,0.634,0.387
	c0,0.215-0.159,0.309-0.496,0.309c-0.272,0-0.528-0.094-0.728-0.326l-0.41,0.367c0.216,0.316,0.63,0.516,1.105,0.516
	c0.776,0,1.117-0.366,1.117-0.906C4.029,17.312,3.529,17.157,3.077,17.052z M5.695,15.901c-0.775,0-1.234,0.602-1.234,1.467
	s0.459,1.466,1.234,1.466c0.776,0,1.235-0.601,1.235-1.466S6.471,15.901,5.695,15.901z M5.695,18.271
	c-0.459,0-0.649-0.395-0.649-0.902s0.19-0.902,0.649-0.902c0.46,0,0.65,0.395,0.65,0.902S6.155,18.271,5.695,18.271z M9.226,17.543
	c0,0.454-0.224,0.735-0.585,0.735c-0.362,0-0.581-0.289-0.581-0.744v-1.588H7.49v1.597c0,0.828,0.464,1.292,1.15,1.292
	c0.723,0,1.153-0.477,1.153-1.301v-1.588H9.226V17.543z M12.248,17.148c0,0.159,0.008,0.517,0.008,0.622
	c-0.037-0.074-0.13-0.216-0.199-0.322l-1.008-1.503h-0.544v2.845h0.561v-1.252c0-0.158-0.008-0.516-0.008-0.621
	c0.036,0.072,0.13,0.215,0.199,0.32l1.044,1.553h0.508v-2.845h-0.561V17.148z M14.43,15.946h-0.89v2.844h0.849
	c0.731,0,1.455-0.423,1.455-1.422C15.844,16.327,15.242,15.946,14.43,15.946z M14.389,18.237h-0.28v-1.738h0.301
	c0.602,0,0.85,0.287,0.85,0.869C15.259,17.888,14.987,18.237,14.389,18.237z M17.603,16.466c0.256,0,0.418,0.114,0.521,0.309
	l0.527-0.243c-0.179-0.37-0.504-0.63-1.04-0.63c-0.743,0-1.264,0.602-1.264,1.467c0,0.897,0.5,1.466,1.243,1.466
	c0.517,0,0.857-0.239,1.053-0.642l-0.479-0.285c-0.15,0.253-0.301,0.362-0.557,0.362c-0.427,0-0.675-0.39-0.675-0.901
	C16.932,16.841,17.176,16.466,17.603,16.466z M19.712,15.946h-0.568v2.844h1.709v-0.561h-1.141V15.946z M22.352,15.901
	c-0.776,0-1.235,0.602-1.235,1.467s0.459,1.466,1.235,1.466c0.775,0,1.234-0.601,1.234-1.466S23.127,15.901,22.352,15.901z
	 M22.352,18.271c-0.46,0-0.65-0.395-0.65-0.902s0.19-0.902,0.65-0.902c0.458,0,0.649,0.395,0.649,0.902S22.81,18.271,22.352,18.271z
	 M25.882,17.543c0,0.454-0.224,0.735-0.585,0.735c-0.362,0-0.581-0.289-0.581-0.744v-1.588h-0.569v1.597
	c0,0.828,0.464,1.292,1.15,1.292c0.724,0,1.153-0.477,1.153-1.301v-1.588h-0.568V17.543z M28.051,15.946h-0.889v2.844h0.849
	c0.731,0,1.454-0.423,1.454-1.422C29.465,16.327,28.865,15.946,28.051,15.946z M28.011,18.237h-0.28v-1.738h0.301
	c0.601,0,0.849,0.287,0.849,0.869C28.88,17.888,28.608,18.237,28.011,18.237z"/>
</svg>
