<?xml version="1.0" encoding="utf-8"?>
<!-- Generator: Adobe Illustrator 15.0.0, SVG Export Plug-In . SVG Version: 6.00 Build 0)  -->
<!DOCTYPE svg PUBLIC "-//W3C//DTD SVG 1.1//EN" "http://www.w3.org/Graphics/SVG/1.1/DTD/svg11.dtd">
<svg version="1.1" id="Layer_1" xmlns:svg="http://www.w3.org/2000/svg"
	 xmlns="http://www.w3.org/2000/svg" xmlns:xlink="http://www.w3.org/1999/xlink" x="0px" y="0px" width="514.167px"
	 height="155.721px" viewBox="0 0 514.167 155.721" enable-background="new 0 0 514.167 155.721" xml:space="preserve">
<g id="g2403" transform="matrix(1.0986567,0,0,1.0986567,0,-7.6819571)">
	<g id="g2405">
		<path id="path2407" fill="#0063DB" d="M18.742,74.199H0V51.124h19.272v-5.858c0-28.384,12.907-38.274,38.366-38.274
			c6.895,0,12.199,1.099,16.265,1.832l-1.944,22.707c-2.651-0.916-5.304-1.466-10.077-1.466c-8.133,0-11.315,5.86-11.315,15.201
			v5.859h22.63V74.2h-22.63v72.331H18.742V74.199z"/>
		<rect id="rect2409" x="89.814" y="9.191" fill="#0063DB" width="31.825" height="137.339"/>
		<rect id="rect2411" x="148.865" y="11.388" fill="#0063DB" width="31.826" height="24.172"/>
		<rect id="rect2413" x="148.865" y="51.124" fill="#0063DB" width="31.826" height="95.405"/>
		<path id="path2415" fill="#0063DB" d="M276.341,78.409c-5.835-3.66-11.668-5.309-19.272-5.309
			c-13.791,0-24.399,9.889-24.399,26.37c0,15.2,12.377,25.087,26.168,25.087c7.25,0,14.499-1.647,19.802-4.578l0.708,24.538
			c-7.957,2.748-17.504,4.213-25.991,4.213c-30.412,0-53.572-18.312-53.572-49.809c0-31.681,23.16-49.992,53.572-49.992
			c9.548,0,18.033,1.648,25.283,5.31L276.341,78.409z"/>
		<polygon id="polygon2417" fill="#0063DB" points="292.609,9.191 324.432,9.191 324.432,91.23 324.787,91.23 351.306,51.124
			386.137,51.124 354.136,94.889 388.787,146.53 350.244,146.53 324.787,99.285 324.432,99.285 324.432,146.53 292.609,146.53 		"/>
		<path id="path2419" fill="#FF0084" d="M466.404,77.493c-3.536-1.097-7.074-1.097-10.784-1.097
			c-14.851,0-23.162,11.169-23.162,29.848v40.285h-31.823V51.124h28.993v17.58h0.356c5.479-12.087,13.436-19.777,27.228-19.777
			c3.708,0,7.6,0.549,10.786,1.098L466.404,77.493z"/>
	</g>
</g>
</svg>
