<?xml version="1.0" encoding="utf-8"?>
<!-- Generator: Adobe Illustrator 15.0.0, SVG Export Plug-In . SVG Version: 6.00 Build 0)  -->
<!DOCTYPE svg PUBLIC "-//W3C//DTD SVG 1.1//EN" "http://www.w3.org/Graphics/SVG/1.1/DTD/svg11.dtd">
<svg version="1.1" id="Layer_1" xmlns="http://www.w3.org/2000/svg" xmlns:xlink="http://www.w3.org/1999/xlink" x="0px" y="0px"
	 width="2268.094px" height="2167.727px" viewBox="0 0 2268.094 2167.727" enable-background="new 0 0 2268.094 2167.727"
	 xml:space="preserve">
<g>
	<path fill="#C8C8C8" d="M982.053,927.882c-3.65-36.34-13.896-71.421-14.999-106.983c-0.162-1.163,1.835-8.832,3-9
		c-54.019,4.31-108.674,21.972-167.979,20.998c-0.217-27.447-3.465-51.863-4-78.99c-26.655,2.687-52.864,11.105-78.99,10.999
		c0.773-10.105-1.506-17.159-1-26.997c-102.824,6.83-207.065,12.241-308.961,19.998c-1.126,12.212,3.046,24.166,0,34.996
		c-36.899,0.771-72.918,7.726-108.986,5.999c-1.917-23.746-3.134-48.194-4-72.991c-6.221,2.461-8.744-5.377-13.998-6.999
		c0.163,1.163-1.027,3.972-2,4c0.834,6.832-7.837,12.162-8.999,11.999c-3.941,2.564-36.712-7.283-39.995-8.999
		c-1.182-0.485-6.183-3.149-5.999-4c-1.352-0.982-5.862-9.137-6-10.999c-1.023-0.979-2.023-1.979-3-3
		c-0.333,0-6.266,1.398-6.998,3.996c-0.224,0.772-2.066,4.266-3,4.999c-12.99,13.842-51.016,7.767-67.991,2
		c-1.182-0.485-17.666-7.999-17.999-7.999c-4.184,1.278-10.026,6.53-4.999,10.999c0.779,0.221,3.333,7.999,3,7.999
		c-2.018,3.646-55.391,45.596-67.992,57.991c-1.666,0-5.836,1.162-6.999,1c-2.982,2.019-4.934,5.064-7.999,6.999
		c-0.221,0.779-9.393,2.272-9.999,4c0,1,0,2,0,3c1.342,0.657,3.633,9.45,2,9c-0.212,1.122-2.837,3.163-4,3
		c-4.744,1.925-5.81,7.521-6.999,12.999c-0.224,0.775-0.027,1.975-1,2c-2.593,4.072-7.094,6.237-8.999,10.999
		c0.053,1.722-2.838,4.161-4,3.999c-1.697,0.973-2.569,2.766-2,6c0.779,0.223,2.163,2.839,2,4c2.232,10.105,6.663,23.325,4,34.995
		c0.043,1.378-0.609,8.608,0,10.999c0.779,0.223,8.749,12.915,14,16.997c1.963,1.703,8.705,6.96,8.999,8.999
		c0.779,0.223,4.163,9.836,4,10.999c3.101,28.394,10.314,58.756,13.998,88.989c5.357,43.962-0.856,89.035,7.999,130.983
		c162.373-10.604,322.25-23.704,485.938-32.996c3.292-3.236-2.521-9.68,1-12.998c0.058-0.609,0.147-1.186,1-1
		c39.19-7.499,78.19-13.749,68.99-47.994c20.7-31.755,59.45-13.255,94.989,4c18.844-9.382,36.211-50.755,85.99-47.994
		c2.854-2.145,5.146-11.183,6-10.999c16.114,1.127,56.72,12.488,74.991-1c-2.074-7.926-3.808-16.194-4-25.997
		c8.276-1.72,17.224-2.771,25.994-4c-0.19-6.14-2.481-10.182-2-16.998c1.185-1.15,16.74-3.592,20.998-4
		c0.167-5.833-1.742-9.587-1-15.998C934.865,934.023,959.763,932.256,982.053,927.882z"/>
	<path fill="#C8C8C8" d="M1304.008,509.939c33.34-4.989,113.357-19.422,119.285-19.825c-0.004-1.003-3.693-20.114-5.301-29.17
		c-8.768,0.229-14.773,3.224-23.998,3c-1.529-6.47-3.098-12.9-3-20.997c6.645-2.355,15.561-2.439,22.998-4
		c-2.174-14.16-5.125-27.537-7-41.995c-37.949-16.838-34.449-34.088-35.994-61.992c-0.811-0.189-12.277,2.206-15.998,0
		c0.764-5.429-1-14.332-1-14.999c0.277-2.917-0.238-3.438-2-2c-0.262,1.406-3.838,3.163-5,3c-0.293,6.96,2.98,10.352,3,16.998
		c-6.707,11.905-41.99,35.155-56.99,27.997c-18.217-8.092-20.467-25.342-22.998-35.997c-0.574,1.758,1.582,6.973-3,8
		c-7.217,4.655-17.879-3.785-21.996-3c-3.725,2.405-9.752,4.914-10,6c-0.332,0-12.775,1.709-14.998,1
		c-1.785-9.213-2.275-19.721-6.998-25.997c-1.271,10.367,4.617,21.976,5,33.996c-0.334,0-0.668,0-1,0
		c-0.912,2.423-10.547,3.453-12,4c0-0.333-2.988-26.674-8.998-33.996c0.072,11.934,6.016,23.308,4,33.996
		c-0.41,1.257-6.547,2.453-8,3c-2.977-8.025-2.969-19.028-6.998-25.997c1.408,19.397,11.188,42.646-6,50.994
		c-0.061,0.61-0.148,1.184-1,1c-4.049,1.618-9.289,2.043-14.998,2c-0.84-1.16-7.086-22.58-6.998-23.999
		c-5.186-2.502-10.986,2.094-17.998,1c-1.436-3.567-1.725-8.278-3-11.999c-35.022,4.308-67.633,11.025-102.988,14.999
		c-1.666,1.986,2.059,10.606,2,14.998c-0.334,0-1.149,1.184-2,1c-21.627,3.705-45.181,10.809-67.992,9.999
		c-0.607-0.057-1.184-0.149-1-1c-1.386-1.614-6.689-19.635-5.999-21.999c1.161-0.839,2.684-1.319,5-1
		c24.372-8.957,49.369-17.289,74.991-24.997c0.151-1.85,3.386-0.614,4-2c0.667,0,1.333,0,2,0c7.659,0.659,11.971-2.028,18.998-2
		c0.169-1.165,1.581-1.085,3-1c2.328-2.006,6.22-2.446,7-5.999c-0.221-0.779-0.837-1.163-2-1c-2.451,1.882-10.548,5.076-11.97,4.99
		c-28.196,5.131-50.551,16.104-83.988,15.998c-0.852,1.482-2.518,2.149-5,2c-1.224,1.443-21.837,15.163-23,15
		c0.717,1.621-11.632-2.701-15.999-2c-0.168,1.165-11.921,3.412-16.999,4c-0.221,0.778-4.417,1.917-6,2
		c-0.221,0.778-2.837,2.163-4,2c-7.307,6.842-34.892-2.302-31.995,9.999c-0.562,1.439-1.562,2.439-3,3
		c-5.358,3.326-0.641-12.001-6.999-10.999c-0.775-0.225-78.574,23.086-79.993,23c-4.329,2.671-52.053,15.418-66.993,5
		c-1.183-0.485-65.559-35.768-65.996-36.997c-1.479-0.188-2.862-6.139-3-8c-2.962-3.705-19.311-19.585-23.998-19.999
		c-18.263-3.401-38.1-5.228-56.993-7.999c-1.177-0.156-16.085-5.248-16.999-7c-0.777-0.221-5.085-15.58-5-16.999
		c-3.199-4.298-12.902-6.371-17.998-3c-0.547,5.574,2.975,12.322,0,16.998c-5.072,2.164,2.013,17.962-1,23.997
		c-0.057,0.609-7.367,5.298-8.999,8.999c1.889,18.763-6.574,74.92-11,77.991c-7.846,10.819-6.474,30.856-11.999,43.995
		c0,1-17.498,35.824-19.998,48.995c-0.057,0.61-5.874,4.126-7,7c-0.224,0.776-7.517,23.815-10.999,29.998
		c-0.642,4.025,1.302,10.633-1,12.999c-0.224,0.776-13.988,43.339-16.999,47.997c-0.595,2.072,1.236,6.569-1,7
		c-2.078,7.692-33.422,54.902-38.993,58.994c-8.335,11.448-23.335,1.448-36.997,9c-6.088,0.698-33.588,24.948-34.998,21.999
		c-0.776-0.224-8.221-5.446-10.999-7.999c-3.841,0.198-12.646,9.686-13,10.999c2.202,23.462,3.416,47.912,4,72.991
		c35.495-1.168,68.227-5.099,102.987-6.999c0.996-12.083-3.051-24.163,0-34.996c104.338-6.65,212.169-15.135,315.96-18.998
		c-0.771,10.104,1.507,17.159,1,26.997c26.702-2.643,52.634-11.34,78.989-10.999c0.906,27.091,2.276,53.717,4.999,78.99
		c60.153-2.179,111.653-18.325,166.979-21.997c-0.17,1.497-2.829,13.839-4,14c1.348,19.313,5.641,35.685,7.999,53.994
		c31.541-4.455,61.648-10.343,92.985-14.999c-4.268-27.729-9.481-54.512-13.998-81.99c-22.768,3.227-44.094,7.899-67.99,9.999
		c-1.964-5.703-2.479-12.853-3-19.998c53.771-9.554,110.021-16.632,162.979-26.997c-1.016-3.983-1.455-8.542-1.998-12.999
		c-16.057,1.939-31.255,4.741-46.996,6.999c-2.179-5.488-3.448-11.883-4-18.998c38.494-7.501,77.88-14.109,117.986-19.998
		c-0.297-6.037-2.137-10.53-2-16.998c16.475-2.853,32.551-6.11,49.994-7.999c2.172,4.16,1.443,11.22,3,15.998
		c7.764-1.568,15.738-2.923,23.996-4c5.51,20.822,6.963,45.697,11.998,66.992c6.006-0.994,11.318-2.679,17.998-3
		c-0.771-5.229-1.646-10.355-2-15.998c6.857-2.472,16.387-2.279,23.996-4C1328.233,655.694,1316.239,582.695,1304.008,509.939z"/>
</g>
<path id="District_3" fill="#C8C8C8" d="M1731.958,493.938c2.283,1.393-14.541,13.456-19.998,14.999
	c-0.086,1.421,6.021,12.183,7.998,8.998c1.164,0.163,17.236-9.76,23.998-14.997c1.312-1.198,1.572-0.391,3,0
	c-6.67,8.66-17.383,13.279-24.998,20.997c0.109,4.227,5.391,8.942,6,9c-0.715,1.621,4.715,1.621,4,0
	c0.332,0,20.619-14.044,22.996-17c-0.195,5.151-14.994,15.003-15.998,14.998c-0.086,1.42,25.875,36.784,26.996,36.996
	c-0.715,1.621,20.93-6.731,26.998-10.999c1.332,0,6.234,3.099,7.998,4c-12.188,17.479-29.256,30.07-45.994,42.995
	c-6.582-7.416-20.996-21.664-20.996-21.997c-1.164-0.163-128.068,127.568-191.979,189.979c-3.818,0.484-5.391-5.942-6-5.999
	c-2.82-3.08-6.898,1.041-10.998,0c0.334-5.334-1.242-8.755-2-12.999c4.848,0.179,8.537-0.794,11.998-2
	c0.469-9.468-5.064-12.934-5.998-20.998c-12.438,0.895-23.34,3.324-34.994,5c-0.061-4.608-0.465-8.87-2-11.999
	c0.184-0.854-0.393-0.943-1-1c0-0.333,0-0.667,0-1c-17.447,1.218-31.881,5.447-48.994,6.999c-0.369-5.962-1.248-11.417-3-15.998
	c-26.23,2.765-49.852,8.143-74.99,11.999c0.547,1.453,2,9.332,2,9.999c-6.012,1.985-13.451,2.547-19.998,4
	c-7.256-48.735-32.807-199.164-37.994-223.974c30.664-6.663,112.578-20.069,118.984-21.997c-1.082-11.916-4.469-21.528-4.998-33.994
	c-8.047-2.858-16.602,1.928-24.998,2c-0.443-4.892-2.062-8.606-2-13.998c7.141-1.859,16.246-1.752,22.998-4
	c-1.873-16.125-4.51-31.489-8-45.994c-0.443-0.892-0.877-1.789-2-2c-6.459-9.915-22.91-12.983-27.996-24.997
	c-4.234-10.002-0.67-22.164-5.998-33.996c0.188-0.81,19.994-7.003,20.996-7c-0.086,1.419,1.16,6.839,2,8
	c7.018-0.649,20.664-5,20.998-5c0.303-4.637-0.014-8.656-2-10.999c-5.744-0.588-14.939,2.274-14.998-4
	c0.184-0.851-31.391-23.271-43.994-36.995c4.594-1.915,6.877,6.202,13.998,4.999c0.309,1.357,2.504,0.83,4,1
	c0.689-0.807-3.363-6.721-1-7c12.08,1.938,44.24,32.365,52.99,38.995c3.693-0.638,13.787-1.878,13.998-3c0.334,0,0.666,0,1,0
	c0.184-2.181-4.816-4.515-5.998-5c0.025-0.973,1.225-0.776,1.998-1c0.027,0.973,3.725,2.945,5,3c0.434,2.236,4.93,0.405,7,1
	c0.656,1.342,7.225,3.776,7.998,4c0.693-0.807,1.559-2.739,0-3c-5.6-9.066-17.055-12.276-20.994-22.997
	c10.986,3.272,30.145,28.181,30.994,27.997c2.713,1.418,8.871,3.147,11.998,1c0.162-1.163-22-32.993-21.996-33.996
	c-0.553-2.217,10.34-7.992,13.998-10.999c1.576,2.622-4.781,5.85-7.998,6.999c3.488,6.84,27.688,41.302,29.994,40.996
	c0,0.333,13.994-0.003,14.998,0c0.088-1.419-14.107-30.887-20.998-42.995c0-0.333,1.266-7.069,4-7.999c1.422,0.086,7.666-1,9.998-1
	c6.201,5.797,0.689,23.31,4,31.996c-0.16,1.162,9.238,22.756,10.998,22.998c3.688,1.854,37.496,12.655,42.064,17.155
	c0.725-11.39-1.715-24.843-1.068-36.153c2.332,0,4.666,0,6.998,0c0.451,14.882,1.174,29.493,3,42.995
	c0.439,1.229,12.973,6.17,12.998,2c3.865-8.134,10.352-28.981,12-28.997c0.936,1.067,3.688,0.312,2.998,3
	c-3.355,8.305-9.609,29.382-10.998,29.996c-0.334,0,8.922,10.744,11.998,9.999c1.139-2.198,16.943-24.719,16.998-25.997
	c1.314-1.2,4.006,0.997,4,2c-4.441,6.555-18.078,24.121-14.998,25.997c-0.184,0.85,10.225,8.774,10.998,8.999
	c0-0.333,20.834-29.108,25.998-27.997c6.74,1.451,0.328,60.437,2.998,65.992c0.859,0.807,5.373,7.432,6,5
	c9.764-6.236,17.754-14.241,27.996-19.998c-0.729,2.728,1.986,2.013,2,4c-5.977,7.688-15.518,11.811-20.998,19.997
	c1.969,1.416,3.646,8.289,7,5c0.809-0.86,8.576-5.755,10.998-7.999c0.809-0.86,8.051-7.524,10-4.999
	c-6.473,9.189-16.219,15.107-25.998,20.997c1.307,4.693,5.447,6.552,7,10.999c1.76-0.575,28.734-15.595,28.996-16.998
	c6.002-0.813,9.338,9.188,12.998,13.998c-10.383,5.278-17.158,14.171-27.996,18.998c1.664,4.688,5.35,12.625,9.998,10.999
	c1.162,0.161,27.664-16.998,27.996-16.998c-5.242,8.427-18.586,17.401-28.996,23.997c3.604,4.408,7.373,13.938,13,12.996
	c0.809-0.858,24.24-18.756,28.996-19.996c0.527,0.804,1.043,1.621,1,3c-9.191,8.473-20.875,14.451-28.998,23.995
	c2.463,1.575,4.244,9.036,8,5.999C1713.124,507.099,1726.293,498.273,1731.958,493.938z"/>
<path id="District_4" fill="#C8C8C8" d="M72.165,1380.828c-4.708-72.899-8.392-146.819-15.998-218.973
	c172.157-12.159,344.629-23.988,516.935-35.996c1.295,20.703,1.937,42.061,3,62.989c-10.642-0.643-18.271,1.729-28.994,1
	c7.557,162.429,19.716,328.903,27.994,493.938c-78.33,4.251-306.89,17.908-335.958,13.998
	c-10.301-2.786-23.968-15.119-37.995-19.997c-25.795-7.915-81.307-2.122-96.988,2.999c-1.921-38.406-10.223-111.21-9.999-111.985
	c2.272-27.604-8.833-81.819-9.999-81.987c-3.653-30.346-6.277-61.715-7.999-93.988C76.25,1391.407,73.837,1383.154,72.165,1380.828z
	"/>
<path id="District_5" fill="#C8C8C8" d="M1149.03,725.909c-14.713-1.044-32.046,3.941-46.994,6c0.179-4.845-1.319-8.017-2-11.999
	c38.677-7.649,80.044-12.609,117.986-20.997c0.055-6.055-1.396-10.605-2-15.998c14.629-2.036,28.604-4.723,42.992-6.999
	c1.557,4.778,0.826,11.838,3,15.998c8.107-0.895,16.102-1.899,22.996-4c1.004-0.003,1.191,0.81,2,1
	c3.031,22.632,6.178,45.152,10.998,65.992c9.148-0.521,16.582-2.75,24.998-4c-0.229-5.772-0.957-11.042-2-15.998
	c6.643-1.359,14.045-1.952,20.998-3c8.131,56.685,36.795,200.367,33.994,204.975c-6.518,10.725-48.834,50.362-57.992,60.992
	c-7.729-2.826-16.049,0.872-24.996,0c-2.174-4.493-2.055-11.277-4-15.998c-8.396,1.267-16.947,2.38-24.994,4
	c1.129,10.87,3.145,20.851,5,30.996c-21.68,3.987-44.898,6.43-66.992,9.999c-1.039-4.293-0.398-10.27-2-13.998
	c-37.162,4.841-74.646,14.668-110.986,16.998c-2.992-1.174-6.825-7.008-12.998-12.999c-15.229,2.769-31.119,4.616-45.744,9.366
	c-13.374,7.615,24.875,17.25-1.251,27.631c-4.01,5.989-3.96,16.037-6,23.997c-13.005,1.991-26.885,3.108-37.995,6.999
	c0.852,17.813,6.396,30.936,6.999,48.993c-2.503,7.838-23.003,18.672-13.998,44.994c1.162,6.344,9.495,10.344,9,16.996
	c-5.838,6.014-7.902,19.005-7.505,26.014c-7.833,18.982-18,7-64.486,18.982c-0.862-4.139-0.513-9.489-2-13
	c-11.257,0.076-30.764,5.018-36.996,10c-2.792-1.482-26.54-9.072-27.998-16.998c0.147-3.984,11.814-15.15,10-19.998
	c-0.729-2.271-12.52-10.654-16.999-7.998c-4.077-3.257-22.692-5.973-21.998-10c4.479-1.656,13.127,1.521,17.979-0.989
	c14.299-1.495,19-26,12.021-37.005c-26.075,8.921-51.396,18.598-75.991,28.996c-2.465-0.133-4.816-0.15-5.999,1
	c-0.766,12.098,1.544,21.118,1,32.995c-20.276,1.056-39.567,3.093-59.992,3.999c-0.049-10.948-0.64-21.355-2-30.996
	c-41.661-1.322-83.95,5.365-125.982,7c-1.063-21.604-2.021-43.308-3-64.991c-8.775-1.973-20.336,1.562-30.995,1
	c0.7-4.365-1.701-5.632-1-9.999c76.941-8.249,75.191-32.249,71.991-50.992c21.45-26.507,54.181-6.491,86.989,6.998
	c17.961,2.495,36.461-39.755,67.992-42.995c10.167-1.292,33.469-2.01,28.997-15.998c31.972,11.488,73.972,7.738,76.992,0
	c-0.901-9.432-3.338-17.326-4-26.997c8.27-1.063,25.181-4.149,24.997-5c2.798-4.501-1.46-10.513-1-15.998
	c6.816-1.514,14.506-2.159,20.998-4c0.747-6.747-1.609-10.389-1-16.998c23.018-3.313,45.951-6.708,67.99-10.999
	c-0.704-18.626-5.51-33.151-7-50.993c31.423-5.24,95.173-16.146,94.987-16.998c-1.479-28.516-9.431-59.227-13.998-87.988
	c-23.569,2.429-44.646,7.351-67.992,9.999c-1.312-3.688-0.897-9.1-2-12.999c54.443-8.881,110.404-16.245,162.98-26.995
	C1152.329,738.608,1149.879,725.725,1149.03,725.909z"/>
<g id="District_6">
	<path fill="#C8C8C8" d="M1789.95,579.927c-0.086,1.419,41.93,71.771,39.996,83.991c1.162,0.163,27.941-14.762,35.996-12.999
		c1.141,4.476-4.023,2.644-6,4c-3.02,7.649-9.658,11.673-13.998,17.998c-0.977,0.027-0.775,1.224-1,2
		c0.604,0.576,19.01-5.299,24.994-3c0.281,1.615-25.836,10.16-26.994,10.999c0.402,4.261-0.971,10.3,0.998,12.999
		c9.881,0.87,18.309-5.011,25.996-3c-6.654,6.342-19.359,6.635-29.994,8.999c-1.916,2.417-0.633,8.035-1,11.999
		c13.145,3.062,27.475-1.126,41.992,0c-0.729,10.061,1.643,17.025,1,26.997c-12.85,0.146-42.834,3.161-43.992,4
		c0,4,0,7.999,0,11.999c7.754,2.245,19.6,0.396,28.994,1c-8.09,2.243-17.818,2.843-27.994,3c-2.014,2.989-0.564,9.434-1,13.998
		c7.428,2.239,18.93,0.403,27.994,1c-0.857,2.474-6.959-0.294-7.998,2c-0.162,1.162,4.504,3.83,5.998,4
		c-7.248,1.751-15.896,2.098-24.994,2c-3.512,1.157-3.064,6.267-3,10.999c12.715,4.248,31.23-4.627,41.992,1
		c-10.777,4.217-26.793,3.203-40.992,4c-1.916,2.417-0.633,8.035-1,11.999c12.869,4.26,31.867-3.794,42.992,2
		c-11.094,4.237-27.385,3.278-41.992,4c-0.971,13.694,2.473,31.479,2,47.994c5.137,1.538,35.982-3.313,38.992,3
		c0.393,4.25-28.998,3.815-35.992,6c-0.811,0.857-42.316,23.342-44.994,23.998c-0.162,1.161,5,11.667,5,12
		c14.668-0.33,27.764-2.231,40.994-4c0,4.333,0,8.666,0,12.998c10.184,2.728,21.02-2.218,31.994-2
		c-0.693,5.69,1.693,8.305,0.998,13.997c-10.141,0.855-18.148,3.846-28.994,4c-2.123,4.209-0.484,12.181-1,17.996
		c24.393,2.367,49.438-3.201,74.99-3c-0.646,14.648,3.586,29.737,1,42.995c-11.709-7.957-24.285-15.044-36.996-21.997
		c-0.025-0.972-25.211-0.888-34.994,0c-0.088,1.42,10.158,34.84,10.998,35.998c1.162,0.163,2.941-1.39,3-2
		c0.062-3.146,5.104-3.634,6,0c-1.174,0.162-3.418,9.914-5,12.999c0.238,1.762,21.998,12.664,31.994,16.999
		c2.361,1.072,4.434,4.351,0,4.999c-6.58-4.084-14.389-6.938-21.994-9.999c-0.162-1.172-5.344,3.743-3,4
		c-0.088,1.419,5.998,21.333,5.998,22c-0.32,2.412-6.986,3.588-3.998,6c0.057,0.61,19.502,9.83,20.994,10
		c-4.709,1.623-10.627,2.039-16.998,2c-2.857,0.143-1.824,4.17-2,6.999c-4.477-1.493-16.877-3.109-14.998,5
		c-2.15,3.513-26.994,43.661-26.994,43.995c-23.525,1.471-46.406,3.586-69.99,4.999c-0.572-2-9.074-24.181-15.998-27.996
		c-2.678-3.103-3.803,2.621-6,0c-35.578-36.413-73.498-73.438-109.91-109.018c-0.225-1.274-24.488,24.944-37.07,36.026
		c-70.93,15.975-65.93,19.725-114.43,5.725c-63.824,0.362-67.002,0.902-102.75-2.5c-38-4.25-43.617-15.807-54.785-40.221
		c11.502-11.999,49.316-49.844,56.994-58.993c-10.01-66.647-21.947-131.369-32.996-196.978c7.264-2.066,16.328-2.336,22.996-5
		c0.074-3.737-0.42-6.911-2-8.998c21.557-5.106,45.105-8.22,67.992-11.998c1.385,4.281,2.211,9.119,1.998,14.998
		c16.941,1.896,33.641-4.985,50.994-6c0.598,5.069,1.055,10.279,3,13.998c11.768-1.229,22.57-3.426,33.994-5
		c0.316,5.686,4.064,7.938,5,13c-2.121,3.211-9.301,1.363-12,4c1.062,6.605,1.68,13.652,4,18.997
		c10.664-3.043,11.773,2.611,17.998,5.999c65.094-62.199,127.896-124.391,192.979-189.976c6.582,7.416,13.582,14.415,20.996,20.998
		C1755.202,608.182,1778.213,589.864,1789.95,579.927z"/>
	<path fill="#C8C8C8" d="M2142.907,229.971c1.756-3.243,5.232-4.764,7.998-6.999c2.182-8.722,1.115-18.012,6-21.997
		c1.062-22.932-62.354-136.813-62.992-144.982c-1.047-13.326,10.693-24.613,11.998-38.995c12.521-4.811,23.406-11.255,34.996-16.998
		c14.311,3.688,25.98,10.014,39.994,13.998c9.061,20.644,39.117,75.021,48.646,90.866c-6.441,12.207-14.938,34.496-16.648,41.118
		c-3.008-1.401-42.193,17.131-56.992,26.996c3.268,7.402,9.576,30.419,11.998,31.996c4.314,13.26,30.389,14.082,38.996,4
		c0.609-0.057,18.195-8.467,26.996-8.999c1.766-0.903,3.1-2.237,4-4c5.979-3.021,13.391-4.61,21.996-5
		c-1.598,12.067-13.289,14.04-19.996,20.998c-0.658,14.671-1.4,29.261-1,44.994c-2.664,4.335-5.422,8.577-8,12.999
		c-12.445-7.932-28.887-7.653-44.99-5c-9.365-12.966-30.684-13.981-37.996-28.997C2147,234.208,2143.096,230.781,2142.907,229.971z"
		/>
</g>
<path id="District_7" fill="#C8C8C8" d="M846.068,1148.855c6.113,6.513,2.103,33.634-21.998,30.994c-2.13-2.576-8.274-0.36-9.999,4
	c1.17,5.495,26.475,10.64,30.997,11.998c2.484-0.151,8.166,4.834,9.999,6c0.178,3.513-9.775,15.225-10,15.998
	c-9.021,10.019,26.979,25.186,33.999,22.998c5.229-4.729,21.346-8.648,30.996-9c0.553,4.779,0.614,10.051,2,13.998
	c7.435-1.506,28.606-7.729,42.992-7.998c-0.636,17.771,17.604,26.291,19.364,30.646c6.875,7.25,8.888,18.761,16.633,25.349
	c4.104,1.371,8.163-2.412,9.999,0c-12.007,12.026-19.507,5.651-25.998-2c-0.158-1.172-8.009-2.849-8.999,1
	c-3.135,6.526,8.115,16.401,8,21.997c-2.054,11.721,7.723,11.61,9.999,18.998c-2.17,9.064-18.009,13.531-8.999,25.996
	c1.711,3.499,5.791,7.541,5,10.999c-3.01,6.203-7.909,18.117-19.997,12.998c-4.513-2.795-13.729,9.871-16,11.999
	c-7.179,13.872-0.013,24.039,6,20.997c7.154-2.625,12.228-22.162,18-20.997c7.479,3.854,34.237,16.289,28.996,25.996
	c-12.342-4.457-24.938-13.606-24.996-12.998c-3.845,5.937-20.226,42.77-21,45.994c-2.882,3.451-35.238,26.146-38.997,27.997
	c-0.161,1.162,33.201,44.455,36.997,46.994c7.654,4.723,24.154,5.556,33.996,8.998c10.224,2.223,11.658,19.225,14,21.998
	c3.491,4.727,26.825,7.227,29.997,19.995c-0.184,0.854,17.226,9.774,17.999,9.999c9.995,6.73-4.838,25.063,5,31.996
	c2.829,5.9-3.385,11.612-4.999,12.998c-4.839,0.069-20.506,25.069-13,26.997c5.494,4.072,18.671-1.327,20.998-3
	c11.596-4.893,16.872,7.721,18.998,11.998c-0.896,5.271-12.168-9.426-14.999-8.998c-3.999-3-3,52.424-3,61.992
	c23.348,2.315,50.983,0.344,75.991,0.999c4.151,0.138-10.053,8.279-10,9.999c6.751,1.437,10.561-0.402,15.998,1
	c-0.189,0.81-2.514,3.815-3,4.999c-1.419-0.086-55,24.574-55.659,25.916c-59.833,21.167-91.833,88.167-104.5,128.056
	c-27.262-0.066-50.462-2.015-76.815-2.989c-2.197,5.802-0.434,15.564-1,22.996c-95.971-1.979-181.865,6.108-275.967,5.999
	c0.47,29.223-5.014,54.846-2,81.989c3.039,27.368,18.017,53.752,17.998,81.989c29.284,12.627,82.117,1.46,104.988,11.999
	c8.099,4.23,9.058,15.604,20.997,15.998c3.935,14.268-13.868,7.63-19.202,13.63c-27,7.667-53,22.667-65.791,40.362
	c-164.646,0-329.292,0-493.938,0c-1.726-0.605-35.826-127.821-36.998-127.983c-15.597-86.384-41.702-181.229-46.994-275.965
	c-1.534-27.463,10.481-49.031,5.999-78.99c1.753-0.914,55.388-9.091,95.989-4c17.065,12.576,33.065,21.576,45.996,21.997
	c33.736,7.246,224.069-11.754,331.958-14.998c-5.504-164.146-19.526-328.423-26.997-493.938
	c51.333-2.659,99.921-8.065,151.981-9.999c-0.534,11.198,1.768,19.563,1,30.996c21.528,2.165,44.219-3.085,66.992-3
	c3.048-10.505-1.054-22.187,0-33.995C772.239,1178.014,822.351,1158.801,846.068,1148.855z"/>
<path id="District_8" fill="#C8C8C8" d="M1087.038,1033.871c36.394-1.945,73.978-11.336,109.986-16.998
	c0.148,5.183,0.729,9.938,2,13.999c25.184-3.147,50.574-6.084,73.988-10.999c-1.129-10.87-3.145-20.854-5-30.996
	c6.111-0.555,12.111-1.22,16.998-3c3.504,3.497,2.1,11.901,5,15.998c12.521-1.386,23.232,1.229,30.996-1
	c-0.281,4.947,7.027,17.971,7.998,17.998c3.986,8.122,23.811,287.633,34.996,409.949c-10.471,0.524-20.527,1.471-31.996,1
	c-2.102,3.896-0.5,11.498-1,16.998c2.99,2.011,9.438,0.562,13.998,1c0.588,5.587-2.291,7.707-1.998,12.998
	c4.812,3.662,16.693-3.48,18.996,1c-5.562,9.104-17.117,37.543-18.996,40.994c-5.438-0.105-10.375,0.291-14,2
	c-2.422,0.91-18.082,55.572-17.996,56.991c1.146,4.521,9.621,1.71,11.998,5c-2.051,1.615-9.443,22.218-10,23.997
	c-3.256,19.74-4.279,41.712-7.998,60.991c-1.91,2.091-3.225,4.772-4,7.999c-5.732,6.599-45.135,61.186-45.994,61.992
	c-4.709,5.621-7.27,13.396-17.998,12.998c-29.473,6.912-60.586,36.733-64.988,35.994c-11.252-9.748-20.746-21.248-31.996-30.994
	c-0.482-3.148,3.066-2.267,1.998-6c-2.057-2.608-10.036,0.703-11.998-1.999c2.188-1.479,12.183-7.147,11.998-7.999
	c-24.029-4.636-56.635-0.69-83.989-2c0-18.331,0-36.662,0-54.992c4.417,4.394,6.838,16.238,19.998,6.998
	c0.173-6.76-9.905-13.757-14.998-18.996c-7.162-6.764-23.77,9.204-28.997,4.999c-3.992-5.001,7.243-17.755,10.999-20.997
	c3.629-1.038,6.207-3.125,7.999-6c1.655-1.078,4.503-8.1-2-13.998c-0.608-2.392-1.83-6.102,1-15.998
	c3.688-6.709-1.396-13.249-6-14.998c-0.168-1.165-11.83-4.104-16.999-9.999c1.836-4.438-19.664-16.771-29.998-18.997
	c0.5-6.44-3.5-21.773-15-22.997c-7.975-2.355-29.216-6.444-30.997-6.999c-10.064-4.564-22.304-29.345-35.997-44.994
	c1.185-0.483,36.828-23.117,36.998-28.995c6.99-12.007,17.911-41.748,18.997-41.994c7.847,0.7,27.204,24.997,28.997,4.999
	c1.003-4.71-8.747-15.46-34.996-24.997c-11.588,1.744-10.035,16.627-18.998,20.997c-10.669-9.293,5.829-22.5,9-26.996
	c6.331,3.703,17.185-0.149,16.998-1c14.249-14.214,11.749-19.714,2-29.996c-3.291-11.006,11.233-12.148,12-19.998
	c0.893-9.14-10.607-9.657-11-20.997c0.999-8.723-11.001-10.723-8-20.997c21.666,16.024,30.999,9.857,36.996,0
	c-1.997-7.309-11.83-0.976-14.999-4c-2-2.998-7.63-15.365-9.999-16.998c-3.999-9.478-21.995-17.254-22.998-34.995
	c13.749,0.77,21.539-7.465,25.749-16.23c-0.25-9,2.25-17.25,7.25-20.75c3.501-11.487-8.828-21.851-9.999-22.01
	c-0.62-9.676-2.246-20.084,2-26.997c1.405-0.262,11.999-9.743,12.999-17.493c1.896-15.563-6.254-31.243-6.999-47.499
	c12.405-0.927,24.857-4.812,37.499-5.501c0-0.333,4.66-23.334,4.497-24.497c1.023-0.979,6.5-4.833,8-6
	c12.405-6.962-4.125-12.541-5-20.998c8.398-4.198,37.73-10.659,42.995-5.999C1077.095,1024.48,1087.038,1033.204,1087.038,1033.871z
	"/>
<path id="District_10" fill="#C8C8C8" d="M1864.942,1098.863c0.4,4.4,0.266,8.266-5,6.999c-3.312,1.688-4.615,5.384-7,7.999
	c0.465,6.867,1.502,13.164,1,20.997c-0.893,0.44-10.918,7.034-7.998,10.999c0.855,0.807,8.721,9.94,9.998,9.998
	c2.693,2.305,9.645,0.354,13.998,1c0.191,4.806,0.479,9.521,2,12.999c-0.188,0.851,0.391,0.939,1,0.999
	c6.688,2.797,18.309,6.15,25.996,2c0.852,0.185,1.668-1,2-1c0.652-6.014-1.316-14.648,1-18.997c0,5.999,0,11.998,0,17.997
	c2.293,1.562,9.703,1.562,11.998,0c0.639-3.694-1.293-9.96,1-11.998c0.643,4.021-1.303,10.632,1,12.998c0.438,1.229,3,2.667,3,3
	c8.99-1.006,0.715-19.282,5-24.997c0.129,16.22,2.711,34.362,4,49.994c0.379,4.598-2.57,11.896,2.998,13.998c1,0,2,0,3,0
	c5.451-24.185-4.428-55.521-1-80.99c-0.012,16.121,4.111,51.129,5,67.992c0.434,8.264-0.191,15.964,9.998,10.998
	c0.852,0.185,0.941-0.393,1-1c4.191-17.563-4.783-41.162,1-56.992c4.207,17.79,2.984,41.007,4,61.992
	c-10.168,2.831-26.484-0.488-30.996,7.999c-1.166,4.832,4.062,3.271,5,5.999c1.236,10.902-1,18.332-7,21.997
	c-0.949,9.612,4.215,13.113,8.998,16.998c-0.688,10.354,1.688,17.642,1,27.993c-15.059,2.275-32.719,1.946-44.994,6.999
	c-0.539,6.54,0.617,11.386,1,16.998c5.012,3.22,4.76-6.235,11.998-3.999c0.191,6.143,2.482,10.185,2,16.998
	c3.557,1.474,13.496,1.803,16.998,0c1.162,0.162,19.629-10.032,27.996-14.998c2.307-0.307,1.109,2.892,3,2.999
	c-7.881,5.451-18.115,8.549-25.996,13.998c-3.631-1.533-2.121,6.788-1,6.999c8.639,2.96,17.979-2.006,27.996-0.999
	c0.396,3.729-14.994,10.004-15.998,9.998c-0.043,1.713,0.744,2.592,2,3c19.432-0.562,35.838-4.155,54.994-4.999
	c1.373,24.29,4.768,46.562,5.998,70.99c-52.445,4.113-189.59,18.502-194.979,16.998c-5.188-1.447-29.221-17.771-29.996-17.997
	c-1.162-2.673-13.709,16.094-10.998,16.997c-0.184,0.853,29.814,14.515,30.996,14.999c11.289,2.283,156.188-10.747,215.973-7
	c8.123-0.954,91.988,120.985,98.988,132.983c-31.844,3.15-66.381,3.609-95.988,8.999c-2.059-0.876-0.777,7.775,0,7.999
	c4.918,3.512,0.969,5.882,1,11.999c-0.334,0-0.666,0-1,0c-0.17,2.502,13.82,11.842,14.998,11.998
	c12.434,3.422,29.764-2.227,40.996,0c-14.688,5.312-39.639,0.355-48.994,10.999c-7.428-5.64-16.527-14.712-23.996-16.998
	c-0.773,7.104,1.512,11.15,1,17.998c-0.975,0.024-3.844,7.818-3.998,8.998c0.598,7.064,4.213,11.118,6.998,15.998
	c-1.189,2.973,8.777,0.778,9,0c2.215-0.554,5.998,15.332,5.998,15.998c-1.795,7.204-6.666,24.997-6.998,24.997
	c-0.066,6.396,12.734-0.072,12.998,5.999c1.17,1.493,3.742,7.59,4.998,7.999c3.934,3.215,9.773-6.226,10-6.999
	c4.852-6.813,7.574-15.757,10.998-23.997c2.438-3.561,13.34-8.656,13.998-9.998c1.451-0.547,11.223,0.772,11.998,0.999
	c16.396,10.265,30.02,23.309,28.998,50.994c-0.086,1.419-3.617,16.079,9.998,20.995c2.963-0.7,1.586-5.745,5-6
	c0.666,0,10.426,2.61,9.998,1c8.455-8.541,15.779-18.215,24.996-25.994c3.75,3.916,9.547,5.781,12,10.999
	c-0.975,0.024-4.744,3.921-4,6.999c0.809,0.188,5.723,4.606,7.998,5.999c0.895,2.697,9.941-12.392,10-12.998
	c0.902-2.71,3.68,0.842,3.998,2c-1.23,2.101-10.264,10.732-9.998,13.998c0.805,0.525,5,2.666,5,2.999
	c5.324,2.824,13.102-10.229,14.998-11.998c0.426,1.904,2.854,1.81,2,4.999c-1.168,1.5-9.709,11.094-7,11.999
	c1.24,2.091,2.906,3.758,5,4.999c2.654,2.265,10.102-10.229,11.998-11.998c1.764,0.9,3.096,2.233,4,3.999
	c-1.617,2.383-11.988,10.587-9,12.998c1.105,3.892,2.766,7.23,5,9.999c-0.877,2.06,2.594,4.487,3,2c0.889-0.443,1.789-0.88,2-2
	c2.521-2.231,11.34,5.991,11.998,3c3.654-1.68,4.912-5.755,9.998-5.999c3.656,3.007,7.676,5.653,12,7.999
	c2.121,4.808,9.395-1.688,6.998-4c0-0.333,0-0.666,0-1c-2.004-1.661-4.648-2.688-5-5.999c0.811-0.19,0.998-1.006,2-1
	c5.055,1.941,7.604,6.392,11,9.999c-0.412,3.626-8.527,4.754-6,7.999c0.277,2.054,2.67,1.992,4,2.999
	c2.545,3.286,8.18-2.372,10.998,1c1.156,1.479-1,6-1,6.999c0.811,0.188,0.996,1.003,2,1c6.791,9.643-4.324,25.055-4,37.992
	c-1.174,0.162-3.523,11.144-6.998,13c-2.129,1.869-48.109,13.885-50.994,14.998c-0.162,1.161,6.16,21.838,6.998,22.996
	c1.453-0.547,41.828-10.834,41.996-11.999c1.615-0.278,1.721,0.945,3,1c0.281,1.615-0.947,1.725-1,3
	c-1.42-0.086-43.826,11.833-43.996,12.998c-5.564,0.566-6.514-3.481-8.998-5.999c-0.189-0.81-1.004-0.996-1-2
	c-3.701-0.701-14.709,17.096-11.998,17.998c-0.186,0.854,0.389,0.943,1,1c11.27,10.394,25.039,18.289,34.996,29.996
	c-0.973,0.027-0.775,1.227-1,2c-13.271-4.434-24.525-19.439-38.996-25.997c-2.818,2.185-14.08,15.122-10.998,16.998
	c0,0.333,0,0.666,0,1c1.479,0.521,43.182,30.146,60.992,45.994c-4.512,3.315-6.877,13.572-12.998,11.998
	c-0.734-0.934-30.451-23.209-34.996-24.997c-2.762,6.572-12.996,17.002-13.998,16.998c-0.184,2.185,12.998,10.665,12.998,10.999
	c1.613-0.279,4.332,7.999,4,7.999c-0.072,3.404,51.223,38.102,52.99,39.995c-1,1.331-1.646,3.021-2.998,3.999
	c-2.102-1.229-49.748-36.574-53.992-37.995c-1.814,5.854-6.305,9.028-8.998,13.998c-0.322,2.412-3.611,6.942-3,6.999
	c16.23,13.766,34.92,25.071,49.992,39.995c-2.039,0.294-1.961,2.706-4,3c-16.713-13.616-35.93-24.729-50.992-39.995
	c-4.117,0.785-16.545-3.453-17.998-3.999c-5.023,3.128,0.348,10.442-3.998,13.998c-1,0-14.406-13.257-21.998-17.998
	c-0.027-0.973-25.197-11.132-27.996-15.998c0.162-1.161,2.191-17.855-5-16.998c-1.582,0.083-9.654,6.015-13.998,6.999
	c-9.869,7.114-35.869,5.614-43.994-10.998c-6.025-12.306-26.705-74.614-31.996-87.986c-0.633-3.366-3.379-22.399-10-19.997
	c-6.879,3.098-33.879,8.598-42.994,8.998c-0.891,0.44-10.127,32.865-11.998,34.996c-2.129,3.535-5.424,5.905-11.998,4.998
	c-1.605-1.729-29.855-24.806-41.996-34.994c-0.16-1.172-17.797-13.864-22.996-16.998c0-0.333-4.816-2.517-6-3
	c-5.352-2.377-17.957-4.254-16.998,5c0,0.666,0.504,8.83,2,10.998c0.279,2.055,10,6.999,11,6.999
	c2.248,1.751,26.715,15.277,29.996,26.997c-2.096,7.237,0.221,23.773,1,23.996c0.904,11.909,10.904,21.241,21.996,27.995
	c28.238,22.423,57.197,44.125,84.99,66.991c-12.555,18.111-72.881,66.119-49.994,95.987c2.113,16.632,20.221,19.771,20.998,19.998
	c13.309,4.052,45.115-0.366,52.992-9.999c1.688,3.312,3.645,6.353,6,8.999c0.965,2.367,7.223,4.773,7.998,4.999
	c1.852,0.562,4.984,4.905,2,6.999c0.168-2.168-3.549-0.452-5-0.999c-44.201,4.485-87.279-2.341-131.982,4.999
	c-2.309-1.357-9.223-3.775-9.998-4c-21.951-1.046-26.275-19.719-38.996-29.996c-0.246-1.258-13.197,12.645-20.998,10.999
	c-0.73-0.937-6.721-6.943-11.998-5.999c-0.168-1.165-14.77-7.398-20.996-1c-10.104,2.602-33.793,24.531-46.994,38.995
	c-159.65,0-319.291,0-478.938,0c1.635-4.03,6.162-15.835,5.998-16.998c2.002-3.997,20.332-9.999,20.998-9.999
	c0.658,1.343,14.891,6.021,18.998,4c-8.289-13.043-32.166-35.062-43.994-42.995c6.555-11.442,18.771-37.22,18.996-37.995
	c-7.25-10.414-16.893-18.438-24.996-27.996c1.172-0.162,19.842-64.813,19.998-65.992c2.729,1.271,19.816,24.515,20.996,24.997
	c11.783,3.365,29.154-8.788,43.033-22.635c18.869-12.636,34.434-7.802,46.957-5.361c24.043,8.611,46.543,17.986,73.988,9.998
	c32.162-10.831,169.609-53.234,177.557-56.72c4.42-7,7-18.195,9.666-26.527c-0.105-2.562-3-12.473-5.244-16.737
	c-2.42-1.245-9.225-3.775-9.998-4c-1.293-22.767-57.877-169.338-71.992-207.977c1.584-0.083,4.998-2.003,6-1.999
	c-0.443-2.555-9.219-33.772-9.998-33.996c-4.436-80.762,6.564-55.096,43.994-149.979c6.623-19.63,17.902-55.782-12.998-66.991
	c-10.402-9.262-12.68-26.646-19.998-38.995c-3.123-51.203-7.504-101.146-11.998-150.979c-13.156,1.842-27.49,2.507-40.996,3.999
	c-3.844-55.232-11.387-120.533-13.998-176.979c10.432,1.057,24.178,6.655,33.996,2c2.562-0.104,49.75-10.908,59.992-13
	c0.852,0.187,31.318-30.754,34.562-34.518c3.875,3.068,84.424,81.066,112.418,110.508c3.389-2.525,1.887-1.372,3.389-2.525
	c5.666,5.834,14,21.834,14,27.5c6.5,0,57.021-2.028,73.604-4.978c0.891-0.442,27.871-39.786,28.996-46.994
	c1.086-3.247,7.02-1.646,10.998-2c0.562,1.439,1.559,2.439,3,3c9.379,1.905,20.842-4.296,26.996,1
	c-13.742,0.923-27.201,2.128-39.994,3.999C1864.942,1094.197,1864.942,1098.196,1864.942,1098.863z"/>
<path id="District_9" fill="#C8C8C8" d="M1368.213,1457.364c-4.977-1.992-15.6-0.168-21.209,0.454c1.291-4.041,2.734-7.935,3-12.999
	c-3.285-2.046-10.125-0.54-14.998-0.999c0-3.333,0-6.666,0-9.999c11.734,0.733,20.855-1.145,31.996-1
	c-6.982-134.331-22.859-269.905-31.957-405.457c3.75,5,33.5,15.25,66.25,15.75c31.75,3,70-4.25,96.691,4.755
	c4.959,60.363,10.562,120.086,14.998,180.978c12.203,1.462,28.744-1.19,40.994-3c5.723,47.604,7.6,99.054,12.998,146.982
	c8.111,14.883,7.936,38.06,25.996,42.994c12.553,6.754,16.174,22.022,12.998,41.995c-14.299,42.684-24.799,64.434-44.299,99.684
	c-9.301,13.946-6,48.25-7,73c0.229,0.775,6.768,20.247,8.832,30.486c-4.582,1.514-7.332,1.514-4.525,5.804
	c14.795,38.864,51.521,137.308,71.814,209.071c5,3.25,9.842,3.898,11.172,4.9c0.172,1.496,1.645,10.688,3,10.998
	c-0.15,3.184-7.084,22.578-6.998,23.997c-1.178,0.156-144.041,45.938-174.979,57.993c-14.172,3.125-32.188,2.948-44.693-2.391
	c-34.977-11.125-59-20.75-87.289,2.391c-9.961,0.941-6.461-26.208-15.998-32.996c-1.129-2.895-20.498-3.089-24.996-8.999
	c3.137-3.53,16.184-28.146,15.998-28.996c0.184-2.182-9.838-7.162-10.998-6.999c9.453-8.543,17.822-25.219,32.994-27.997
	c-0.711-4.621-10.711-35.9-18.998-39.995c4.742-7.922,10.52-14.812,13.998-23.994c1.621,0.716-4.998-21.33-4.998-21.998
	c6.67-0.307,38.383-0.791,41.994-5.998c4-2.916,2.877-8.748-8.998-9c1.164-0.168,5.627-18.368,4.998-28.995
	c-0.604-0.576-9.332,1-9.998,1c0.412-4.413-0.271-7.729-2-9.999c-26.604,6.962-64.422,4.66-86.988-3.999
	c1.27-3.066,43.672-59.984,45.994-62.992c0.779-0.221,5.479-8.188,5.998-12.999c4-17.663,5.588-37.741,7-57.992
	c1.482-0.851,7.854-18.809,9.998-23.997c1.166-0.168,1.088-1.58,1-3c-1.312-4.351-11.098-0.23-11.998-4.999
	c1.436-1.229,15.084-48.574,14.998-49.994c3.107-2.559,11.801-0.98,16.539-2.113
	C1348.801,1502.4,1367.667,1458.817,1368.213,1457.364z"/>
<path id="District_11" fill="#C8C8C8" d="M1255.547,1727.364c10.863,8.58,66.375,11.239,86.459,5.42c0,2.999,0,5.999,0,8.998
	c0.693,0.783,8.836,0.172,8.998-0.999c3.137,5.83-3.609,26.385-4,28.996c-0.566,4.273,12.379,0.228,10,2.999
	c-10.836,5.497-30.424,2.239-42.996,6c0.547,1.452,6,23.663,6,24.996c-4.916,6.416-11.096,15.874-14.713,23.59
	c5.5,10.75,17.5,28,18.713,37.401c-3.463,0.349-25.713,12.349-31.996,29.995c-2.236,4.272,7.035,5.604,9.998,7.999
	c0,0.333-16.182,29.146-15.998,29.996c-0.17,2.503,13.533,10.106,26.996,9.999c6.719,7.229,1.871,29.94,15.998,34.995
	c-1.648,2.682-16.027,15.445-27.996,13.998c-7.465-6.886-17.602-24.393-23.996-25.996c-2.322,1.008-24.354,70.716-21.994,70.991
	c7.441,10.219,18.957,16.371,23.994,28.996c-6.557,11.439-14.062,25.038-19.506,37.593c11.334,8.334,38.607,31.286,41.502,37.396
	c-2.348-0.316-15.713-4.621-14.998-2.998c-0.773,0.225-18.912,6.863-19.879,11.229c-0.508-3.062-7.406,13.145-8.117,18.768
	c-191.646,0-383.281,0-574.928,0c-1.732-2.813,38.08-32.943,79.99-41.996c0.609-0.058,1.184-0.147,1-1
	c2.308-3.023,0.354-10.313,1-14.998c-12.861,0.528-15.532-17.869-29.997-17.996c-28.831-6.166-69.707-0.284-95.988-9
	c-0.832-26.525-14.874-51.904-17.998-77.988c-3.106-25.966,3.193-49.798,1-78.99c93.308-0.684,262.58-6.258,276.58-4.258
	c2.319-5.015-0.271-18.063,0.388-24.738c25.655,1.338,51.062,2.93,77.987,2.999c6.999-29.996,30.082-62.906,31.996-66.991
	c24.628-45.77,86.631-69.264,127.984-89.988c19.842,13.957,34.145,33.183,34.996,32.995c29.146-17.773,42.994-31.995,74.99-38.993
	C1248.139,1736.571,1253.651,1729.133,1255.547,1727.364z"/>
</svg>
